<svg width="76" height="77" viewBox="0 0 76 77" fill="none" xmlns="http://www.w3.org/2000/svg">
<path fill-rule="evenodd" clip-rule="evenodd" d="M73.0711 36.5952C74.9464 34.7199 76 32.1763 76 29.5242V10C76 4.47716 71.5229 0 66 0H46.8084C44.1563 0 41.6127 1.05357 39.7374 2.92894L3.07108 39.5952C-0.83416 43.5005 -0.83416 49.8321 3.07108 53.7374L22.4289 73.0952C26.3342 77.0005 32.6658 77.0005 36.5711 73.0952L73.0711 36.5952ZM54.5 29C58.6421 29 62 25.6421 62 21.5C62 17.3579 58.6421 14 54.5 14C50.3579 14 47 17.3579 47 21.5C47 25.6421 50.3579 29 54.5 29Z" fill="white"/>
</svg>
