<svg width="700" height="223" viewBox="0 0 700 223" fill="none" xmlns="http://www.w3.org/2000/svg">
<g clip-path="url(#clip0_1_21)">
<g filter="url(#filter0_d_1_21)">
<path d="M14 139C14.7708 128.726 19.8618 118.296 23.7281 108.965C34.399 83.2098 45.9041 56.8468 61.0191 33.2669C63.976 28.6539 69.2552 18.2724 75.6884 17.0296C79.352 16.3219 78.8356 28.5375 78.8925 29.9889C79.7735 52.4304 74.9427 74.6534 75.148 97.1489C75.1904 101.801 77.2326 105.654 77.2326 110.184" stroke="white" stroke-width="15" stroke-linecap="round"/>
</g>
<g filter="url(#filter1_d_1_21)">
<path d="M12 104C13.0813 103.894 14.0206 103.343 14.9817 102.878C22.5403 99.2194 30.0685 95.4992 37.6116 91.8098C53.9177 83.8345 70.2981 76.1478 87 69" stroke="white" stroke-width="15" stroke-linecap="round"/>
</g>
<g filter="url(#filter2_d_1_21)">
<path d="M122 56.4653C119.414 74.569 112.382 92.8554 105 109.465" stroke="white" stroke-width="15" stroke-linecap="round"/>
</g>
<g filter="url(#filter3_d_1_21)">
<path d="M117 74.4653C127.179 66.9252 135.144 58.2138 147 52.9098C157.426 48.2455 157.267 62.7213 156.944 69.0209C156.415 79.3474 156 89.5394 156 99.9098C156 103.698 155.434 104.756 159.667 103.91C167.399 102.363 172.352 97.6429 178 92.4653" stroke="white" stroke-width="15" stroke-linecap="round"/>
</g>
<g filter="url(#filter4_d_1_21)">
<path d="M234.509 62C225.766 127.571 170.77 179.024 110.009 199.278C90.9755 205.622 69.0089 210.218 49.3425 203.889C34.6543 199.162 30.6012 186.538 32.398 172C34.154 157.793 45.6381 145.716 57.8425 139.222C88.9541 122.667 127.851 127.32 161.676 128.056C197.209 128.828 232.102 129.467 267.565 126.556C279.958 125.538 290.541 123.906 301.509 118" stroke="white" stroke-width="15" stroke-linecap="round"/>
</g>
<g filter="url(#filter5_d_1_21)">
<path d="M188 56C188 66.672 185.391 80.9341 196.056 87.3889C211.92 96.9912 227.372 70.9898 236 61" stroke="white" stroke-width="15" stroke-linecap="round"/>
</g>
<g filter="url(#filter6_d_1_21)">
<path d="M295.309 62.5038C295.579 67.1425 294.679 71.7062 295.135 76.3776C295.68 81.9752 297.296 88.0511 299.626 93.2731C300.134 94.4101 300.419 96.2833 301.85 96.7574" stroke="white" stroke-width="15" stroke-linecap="round"/>
</g>
<g filter="url(#filter7_d_1_21)">
<path d="M288.441 61.1659C287.805 61.3363 287.346 60.9495 286.82 60.7478C284.735 59.9486 282.477 59.5928 280.122 59.5639C275.16 59.503 270.256 60.3444 265.562 63.0495C255.07 69.095 250.798 81.9865 253.478 91.636C254.393 94.9299 255.726 99.7104 259.375 100.836C263.988 102.258 271.139 97.5064 274.901 94.5929C286.196 85.8476 293.813 73.4564 293.704 60.5745" stroke="white" stroke-width="15" stroke-linecap="round"/>
</g>
</g>
<path d="M325.037 56L326.614 46.7955C327.068 44.1818 328.02 41.5114 329.469 38.7841C330.946 36.0568 332.722 33.4858 334.795 31.071C336.898 28.6562 339.085 26.6392 341.358 25.0199L348.517 29.75C346.5 32.25 344.753 34.8636 343.276 37.5909C341.798 40.3182 340.79 43.358 340.25 46.7102L338.673 56H325.037ZM407.026 69.2102L390.534 70.233C390.449 68.7841 390.051 67.4915 389.341 66.3551C388.659 65.1903 387.651 64.267 386.315 63.5852C385.009 62.9034 383.361 62.5625 381.372 62.5625C378.389 62.5625 375.733 63.2443 373.403 64.608C371.074 65.9716 369.753 67.7187 369.44 69.8494C369.185 71.2131 369.54 72.3636 370.506 73.3011C371.472 74.2386 373.418 75.0341 376.344 75.6875L387.849 78.0739C393.986 79.3807 398.418 81.554 401.145 84.5938C403.901 87.6335 404.881 91.6108 404.085 96.5256C403.375 100.702 401.543 104.352 398.588 107.477C395.634 110.574 391.884 112.989 387.338 114.722C382.793 116.426 377.75 117.278 372.21 117.278C363.318 117.278 356.557 115.46 351.926 111.824C347.295 108.187 345.065 103.259 345.236 97.0369L362.963 96.0994C363.105 98.7699 364.043 100.787 365.776 102.151C367.509 103.486 369.881 104.168 372.892 104.196C376.273 104.253 379.142 103.557 381.5 102.108C383.886 100.631 385.236 98.8409 385.548 96.7386C385.776 95.2614 385.349 94.0682 384.27 93.1591C383.219 92.25 381.287 91.4972 378.474 90.9006L367.565 88.642C361.372 87.3636 356.926 85.0767 354.227 81.7812C351.528 78.4858 350.605 74.2955 351.457 69.2102C352.139 65.1477 353.83 61.6676 356.528 58.7699C359.256 55.8437 362.764 53.5994 367.054 52.0369C371.372 50.4744 376.244 49.6932 381.67 49.6932C390.165 49.6932 396.557 51.4403 400.847 54.9347C405.165 58.429 407.224 63.1875 407.026 69.2102ZM440.349 116L454.838 28.7273H489.781C496.202 28.7273 501.401 29.679 505.378 31.5824C509.384 33.4858 512.182 36.1278 513.773 39.5085C515.364 42.8608 515.79 46.7244 515.051 51.0994C514.455 54.5085 513.247 57.4915 511.429 60.0483C509.639 62.6051 507.423 64.7074 504.781 66.3551C502.139 68.0028 499.27 69.1676 496.173 69.8494L496.003 70.7017C499.298 70.8437 502.267 71.7812 504.909 73.5142C507.551 75.2187 509.526 77.6335 510.832 80.7585C512.139 83.8835 512.438 87.5909 511.727 91.8807C510.96 96.5114 509.128 100.645 506.23 104.281C503.332 107.889 499.469 110.744 494.639 112.847C489.838 114.949 484.17 116 477.636 116H440.349ZM461.358 100.915H476.401C481.514 100.915 485.42 99.9205 488.119 97.9318C490.818 95.9432 492.438 93.3153 492.977 90.0483C493.347 87.6335 493.105 85.5028 492.253 83.6562C491.429 81.8097 490.023 80.3608 488.034 79.3097C486.074 78.2585 483.588 77.733 480.577 77.733H465.151L461.358 100.915ZM467.281 65.2472H480.96C483.46 65.2472 485.776 64.8068 487.906 63.9261C490.065 63.017 491.841 61.7386 493.233 60.0909C494.653 58.4148 495.548 56.4403 495.918 54.1676C496.429 50.9858 495.719 48.4432 493.787 46.5398C491.884 44.608 488.901 43.642 484.838 43.642H470.861L467.281 65.2472ZM551.987 28.7273L537.498 116H519.344L533.833 28.7273H551.987ZM581.699 117.278C575.023 117.278 569.497 115.858 565.122 113.017C560.747 110.148 557.665 106.17 555.875 101.085C554.114 95.9716 553.787 90.0199 554.895 83.2301C555.974 76.5256 558.219 70.6591 561.628 65.6307C565.037 60.6023 569.369 56.696 574.625 53.9119C579.881 51.0994 585.804 49.6932 592.395 49.6932C599.043 49.6932 604.554 51.1278 608.929 53.9972C613.304 56.8381 616.386 60.8153 618.176 65.929C619.966 71.0426 620.307 76.9943 619.199 83.7841C618.091 90.4602 615.818 96.3125 612.381 101.341C608.943 106.369 604.611 110.29 599.384 113.102C594.156 115.886 588.261 117.278 581.699 117.278ZM583.489 103.216C586.557 103.216 589.27 102.349 591.628 100.616C594.014 98.8551 595.989 96.4687 597.551 93.4574C599.142 90.4176 600.25 86.9801 600.875 83.1449C601.5 79.3665 601.543 76.0142 601.003 73.0881C600.463 70.1335 599.327 67.804 597.594 66.0994C595.889 64.3949 593.545 63.5426 590.562 63.5426C587.494 63.5426 584.767 64.4233 582.381 66.1847C579.994 67.9176 578.02 70.304 576.457 73.3438C574.895 76.3835 573.801 79.8352 573.176 83.6989C572.58 87.4489 572.537 90.8011 573.048 93.7557C573.56 96.6818 574.682 98.9972 576.415 100.702C578.148 102.378 580.506 103.216 583.489 103.216ZM651.031 141.909C645.122 141.909 640.193 141.099 636.244 139.48C632.324 137.889 629.341 135.716 627.295 132.96C625.278 130.205 624.17 127.108 623.972 123.67L641.188 121.412C641.5 122.747 642.097 123.983 642.977 125.119C643.886 126.256 645.179 127.165 646.855 127.847C648.56 128.528 650.761 128.869 653.46 128.869C657.409 128.869 660.847 127.903 663.773 125.972C666.699 124.068 668.503 120.872 669.185 116.384L671.145 104.409H670.378C669.298 106.227 667.821 107.946 665.946 109.565C664.099 111.185 661.841 112.506 659.17 113.528C656.528 114.551 653.474 115.062 650.009 115.062C645.065 115.062 640.776 113.926 637.139 111.653C633.531 109.352 630.918 105.844 629.298 101.128C627.707 96.3835 627.509 90.3892 628.702 83.1449C629.952 75.7301 632.196 69.5369 635.435 64.5653C638.673 59.5937 642.509 55.8722 646.94 53.4006C651.372 50.929 655.989 49.6932 660.79 49.6932C664.455 49.6932 667.409 50.3182 669.653 51.5682C671.926 52.7898 673.673 54.3239 674.895 56.1705C676.116 57.9886 676.983 59.7784 677.494 61.5398H678.219L680.009 50.5455H698.034L687.04 116.639C686.159 122.236 684.043 126.895 680.69 130.616C677.366 134.366 673.148 137.179 668.034 139.054C662.92 140.957 657.253 141.909 651.031 141.909ZM657.849 101.426C660.747 101.426 663.347 100.702 665.648 99.2528C667.977 97.7756 669.923 95.6733 671.486 92.946C673.048 90.1903 674.142 86.8949 674.767 83.0597C675.392 79.2244 675.378 75.9006 674.724 73.0881C674.099 70.2472 672.878 68.0455 671.06 66.483C669.27 64.9205 666.912 64.1392 663.986 64.1392C660.974 64.1392 658.332 64.9489 656.06 66.5682C653.787 68.1591 651.898 70.375 650.392 73.2159C648.915 76.0568 647.878 79.3381 647.281 83.0597C646.656 86.8381 646.628 90.1051 647.196 92.8608C647.793 95.5881 648.972 97.7045 650.733 99.2102C652.494 100.687 654.866 101.426 657.849 101.426Z" fill="white"/>
<path d="M204.816 187V172.455H206.577V185.438H213.339V187H204.816ZM222.413 187.227C221.362 187.227 220.455 186.995 219.692 186.531C218.935 186.062 218.35 185.409 217.938 184.571C217.531 183.728 217.327 182.748 217.327 181.631C217.327 180.513 217.531 179.528 217.938 178.676C218.35 177.819 218.923 177.152 219.657 176.673C220.396 176.19 221.257 175.949 222.242 175.949C222.81 175.949 223.371 176.044 223.925 176.233C224.479 176.422 224.984 176.73 225.438 177.156C225.893 177.578 226.255 178.136 226.525 178.832C226.795 179.528 226.93 180.385 226.93 181.403V182.114H218.521V180.665H225.225C225.225 180.049 225.102 179.5 224.856 179.017C224.614 178.534 224.269 178.153 223.819 177.874C223.374 177.594 222.848 177.455 222.242 177.455C221.575 177.455 220.997 177.62 220.509 177.952C220.026 178.278 219.655 178.705 219.394 179.23C219.134 179.756 219.004 180.319 219.004 180.92V181.886C219.004 182.71 219.146 183.409 219.43 183.982C219.719 184.55 220.119 184.983 220.63 185.281C221.141 185.575 221.736 185.722 222.413 185.722C222.853 185.722 223.251 185.66 223.606 185.537C223.966 185.409 224.276 185.22 224.536 184.969C224.797 184.713 224.998 184.396 225.14 184.017L226.759 184.472C226.589 185.021 226.302 185.504 225.9 185.92C225.497 186.332 225 186.654 224.408 186.886C223.817 187.114 223.151 187.227 222.413 187.227ZM234.69 187.256C233.998 187.256 233.371 187.125 232.808 186.865C232.244 186.6 231.797 186.219 231.465 185.722C231.134 185.22 230.968 184.614 230.968 183.903C230.968 183.278 231.091 182.772 231.337 182.384C231.584 181.991 231.913 181.683 232.325 181.46C232.737 181.238 233.191 181.072 233.688 180.963C234.19 180.849 234.694 180.759 235.201 180.693C235.864 180.608 236.401 180.544 236.813 180.501C237.23 180.454 237.533 180.376 237.722 180.267C237.916 180.158 238.013 179.969 238.013 179.699V179.642C238.013 178.941 237.822 178.397 237.438 178.009C237.059 177.62 236.484 177.426 235.712 177.426C234.912 177.426 234.285 177.601 233.83 177.952C233.376 178.302 233.056 178.676 232.871 179.074L231.281 178.506C231.565 177.843 231.943 177.327 232.417 176.957C232.895 176.583 233.416 176.323 233.979 176.176C234.548 176.025 235.106 175.949 235.656 175.949C236.006 175.949 236.408 175.991 236.863 176.077C237.322 176.157 237.765 176.325 238.191 176.581C238.622 176.837 238.979 177.223 239.263 177.739C239.548 178.255 239.69 178.946 239.69 179.812V187H238.013V185.523H237.928C237.815 185.759 237.625 186.013 237.36 186.283C237.095 186.553 236.742 186.782 236.302 186.972C235.862 187.161 235.324 187.256 234.69 187.256ZM234.945 185.75C235.608 185.75 236.167 185.62 236.621 185.359C237.081 185.099 237.426 184.763 237.658 184.351C237.895 183.939 238.013 183.506 238.013 183.051V181.517C237.942 181.602 237.786 181.68 237.545 181.751C237.308 181.818 237.033 181.877 236.721 181.929C236.413 181.976 236.112 182.019 235.819 182.057C235.53 182.09 235.296 182.118 235.116 182.142C234.68 182.199 234.273 182.291 233.894 182.419C233.52 182.542 233.217 182.729 232.985 182.98C232.758 183.226 232.644 183.562 232.644 183.989C232.644 184.571 232.86 185.011 233.29 185.31C233.726 185.603 234.278 185.75 234.945 185.75ZM244.749 187V176.091H246.368V177.739H246.482C246.681 177.199 247.041 176.761 247.561 176.425C248.082 176.089 248.669 175.92 249.323 175.92C249.446 175.92 249.6 175.923 249.784 175.928C249.969 175.932 250.109 175.939 250.203 175.949V177.653C250.147 177.639 250.016 177.618 249.813 177.589C249.614 177.556 249.403 177.54 249.181 177.54C248.65 177.54 248.177 177.651 247.76 177.874C247.348 178.091 247.022 178.394 246.78 178.783C246.543 179.166 246.425 179.604 246.425 180.097V187H244.749ZM255.866 180.438V187H254.19V176.091H255.81V177.795H255.952C256.207 177.241 256.596 176.796 257.116 176.46C257.637 176.119 258.31 175.949 259.134 175.949C259.872 175.949 260.518 176.1 261.072 176.403C261.626 176.702 262.057 177.156 262.365 177.767C262.673 178.373 262.827 179.14 262.827 180.068V187H261.151V180.182C261.151 179.325 260.928 178.657 260.483 178.179C260.038 177.696 259.427 177.455 258.651 177.455C258.116 177.455 257.637 177.571 257.216 177.803C256.799 178.035 256.47 178.373 256.229 178.818C255.987 179.263 255.866 179.803 255.866 180.438ZM275.515 187V176.091H277.134V177.795H277.276C277.503 177.213 277.87 176.761 278.377 176.439C278.883 176.112 279.492 175.949 280.202 175.949C280.922 175.949 281.521 176.112 281.999 176.439C282.482 176.761 282.858 177.213 283.128 177.795H283.242C283.521 177.232 283.94 176.785 284.499 176.453C285.058 176.117 285.728 175.949 286.509 175.949C287.484 175.949 288.282 176.254 288.902 176.865C289.523 177.471 289.833 178.416 289.833 179.699V187H288.157V179.699C288.157 178.894 287.936 178.319 287.496 177.973C287.056 177.627 286.537 177.455 285.941 177.455C285.174 177.455 284.579 177.687 284.158 178.151C283.737 178.61 283.526 179.192 283.526 179.898V187H281.821V179.528C281.821 178.908 281.62 178.409 281.218 178.03C280.815 177.646 280.297 177.455 279.662 177.455C279.227 177.455 278.819 177.571 278.441 177.803C278.067 178.035 277.764 178.357 277.532 178.768C277.304 179.176 277.191 179.647 277.191 180.182V187H275.515ZM299.329 187.227C298.344 187.227 297.48 186.993 296.737 186.524C295.998 186.055 295.421 185.4 295.004 184.557C294.592 183.714 294.386 182.729 294.386 181.602C294.386 180.466 294.592 179.474 295.004 178.626C295.421 177.779 295.998 177.121 296.737 176.652C297.48 176.183 298.344 175.949 299.329 175.949C300.314 175.949 301.176 176.183 301.914 176.652C302.658 177.121 303.235 177.779 303.647 178.626C304.064 179.474 304.272 180.466 304.272 181.602C304.272 182.729 304.064 183.714 303.647 184.557C303.235 185.4 302.658 186.055 301.914 186.524C301.176 186.993 300.314 187.227 299.329 187.227ZM299.329 185.722C300.077 185.722 300.693 185.53 301.176 185.146C301.659 184.763 302.016 184.259 302.248 183.634C302.48 183.009 302.596 182.331 302.596 181.602C302.596 180.873 302.48 180.194 302.248 179.564C302.016 178.934 301.659 178.425 301.176 178.037C300.693 177.649 300.077 177.455 299.329 177.455C298.581 177.455 297.966 177.649 297.483 178.037C297 178.425 296.642 178.934 296.41 179.564C296.178 180.194 296.062 180.873 296.062 181.602C296.062 182.331 296.178 183.009 296.41 183.634C296.642 184.259 297 184.763 297.483 185.146C297.966 185.53 298.581 185.722 299.329 185.722ZM308.831 187V176.091H310.45V177.739H310.564C310.763 177.199 311.123 176.761 311.643 176.425C312.164 176.089 312.751 175.92 313.405 175.92C313.528 175.92 313.682 175.923 313.866 175.928C314.051 175.932 314.191 175.939 314.286 175.949V177.653C314.229 177.639 314.098 177.618 313.895 177.589C313.696 177.556 313.485 177.54 313.263 177.54C312.732 177.54 312.259 177.651 311.842 177.874C311.43 178.091 311.104 178.394 310.862 178.783C310.625 179.166 310.507 179.604 310.507 180.097V187H308.831ZM322.514 187.227C321.463 187.227 320.556 186.995 319.794 186.531C319.036 186.062 318.452 185.409 318.04 184.571C317.633 183.728 317.429 182.748 317.429 181.631C317.429 180.513 317.633 179.528 318.04 178.676C318.452 177.819 319.025 177.152 319.759 176.673C320.497 176.19 321.359 175.949 322.344 175.949C322.912 175.949 323.473 176.044 324.027 176.233C324.581 176.422 325.085 176.73 325.54 177.156C325.994 177.578 326.357 178.136 326.626 178.832C326.896 179.528 327.031 180.385 327.031 181.403V182.114H318.622V180.665H325.327C325.327 180.049 325.204 179.5 324.957 179.017C324.716 178.534 324.37 178.153 323.92 177.874C323.475 177.594 322.95 177.455 322.344 177.455C321.676 177.455 321.098 177.62 320.611 177.952C320.128 178.278 319.756 178.705 319.496 179.23C319.235 179.756 319.105 180.319 319.105 180.92V181.886C319.105 182.71 319.247 183.409 319.531 183.982C319.82 184.55 320.22 184.983 320.732 185.281C321.243 185.575 321.837 185.722 322.514 185.722C322.955 185.722 323.352 185.66 323.707 185.537C324.067 185.409 324.377 185.22 324.638 184.969C324.898 184.713 325.099 184.396 325.241 184.017L326.861 184.472C326.69 185.021 326.404 185.504 326.001 185.92C325.599 186.332 325.102 186.654 324.51 186.886C323.918 187.114 323.253 187.227 322.514 187.227ZM342.416 187.256C341.725 187.256 341.098 187.125 340.534 186.865C339.971 186.6 339.523 186.219 339.192 185.722C338.86 185.22 338.695 184.614 338.695 183.903C338.695 183.278 338.818 182.772 339.064 182.384C339.31 181.991 339.639 181.683 340.051 181.46C340.463 181.238 340.918 181.072 341.415 180.963C341.917 180.849 342.421 180.759 342.928 180.693C343.59 180.608 344.128 180.544 344.54 180.501C344.956 180.454 345.259 180.376 345.449 180.267C345.643 180.158 345.74 179.969 345.74 179.699V179.642C345.74 178.941 345.548 178.397 345.165 178.009C344.786 177.62 344.211 177.426 343.439 177.426C342.639 177.426 342.011 177.601 341.557 177.952C341.102 178.302 340.783 178.676 340.598 179.074L339.007 178.506C339.291 177.843 339.67 177.327 340.143 176.957C340.622 176.583 341.143 176.323 341.706 176.176C342.274 176.025 342.833 175.949 343.382 175.949C343.732 175.949 344.135 175.991 344.589 176.077C345.049 176.157 345.491 176.325 345.918 176.581C346.348 176.837 346.706 177.223 346.99 177.739C347.274 178.255 347.416 178.946 347.416 179.812V187H345.74V185.523H345.655C345.541 185.759 345.352 186.013 345.087 186.283C344.821 186.553 344.469 186.782 344.028 186.972C343.588 187.161 343.051 187.256 342.416 187.256ZM342.672 185.75C343.335 185.75 343.893 185.62 344.348 185.359C344.807 185.099 345.153 184.763 345.385 184.351C345.622 183.939 345.74 183.506 345.74 183.051V181.517C345.669 181.602 345.513 181.68 345.271 181.751C345.035 181.818 344.76 181.877 344.447 181.929C344.14 181.976 343.839 182.019 343.545 182.057C343.257 182.09 343.022 182.118 342.842 182.142C342.407 182.199 342 182.291 341.621 182.419C341.247 182.542 340.944 182.729 340.712 182.98C340.484 183.226 340.371 183.562 340.371 183.989C340.371 184.571 340.586 185.011 341.017 185.31C341.453 185.603 342.004 185.75 342.672 185.75ZM352.703 187V172.455H354.379V177.824H354.521C354.644 177.634 354.815 177.393 355.032 177.099C355.255 176.801 355.572 176.536 355.984 176.304C356.401 176.067 356.964 175.949 357.674 175.949C358.593 175.949 359.403 176.179 360.103 176.638C360.804 177.097 361.351 177.748 361.744 178.591C362.137 179.434 362.333 180.428 362.333 181.574C362.333 182.729 362.137 183.731 361.744 184.578C361.351 185.421 360.806 186.074 360.11 186.538C359.414 186.998 358.612 187.227 357.703 187.227C357.002 187.227 356.441 187.111 356.02 186.879C355.598 186.643 355.274 186.375 355.047 186.077C354.819 185.774 354.644 185.523 354.521 185.324H354.322V187H352.703ZM354.35 181.545C354.35 182.369 354.471 183.096 354.713 183.726C354.954 184.351 355.307 184.841 355.771 185.196C356.235 185.546 356.803 185.722 357.475 185.722C358.176 185.722 358.761 185.537 359.23 185.168C359.703 184.794 360.058 184.292 360.295 183.662C360.537 183.027 360.657 182.322 360.657 181.545C360.657 180.778 360.539 180.087 360.302 179.472C360.07 178.851 359.717 178.361 359.244 178.001C358.775 177.637 358.186 177.455 357.475 177.455C356.794 177.455 356.221 177.627 355.757 177.973C355.293 178.314 354.942 178.792 354.706 179.408C354.469 180.018 354.35 180.731 354.35 181.545ZM371.329 187.227C370.344 187.227 369.48 186.993 368.737 186.524C367.998 186.055 367.421 185.4 367.004 184.557C366.592 183.714 366.386 182.729 366.386 181.602C366.386 180.466 366.592 179.474 367.004 178.626C367.421 177.779 367.998 177.121 368.737 176.652C369.48 176.183 370.344 175.949 371.329 175.949C372.314 175.949 373.176 176.183 373.914 176.652C374.658 177.121 375.235 177.779 375.647 178.626C376.064 179.474 376.272 180.466 376.272 181.602C376.272 182.729 376.064 183.714 375.647 184.557C375.235 185.4 374.658 186.055 373.914 186.524C373.176 186.993 372.314 187.227 371.329 187.227ZM371.329 185.722C372.077 185.722 372.693 185.53 373.176 185.146C373.659 184.763 374.016 184.259 374.248 183.634C374.48 183.009 374.596 182.331 374.596 181.602C374.596 180.873 374.48 180.194 374.248 179.564C374.016 178.934 373.659 178.425 373.176 178.037C372.693 177.649 372.077 177.455 371.329 177.455C370.581 177.455 369.966 177.649 369.483 178.037C369 178.425 368.642 178.934 368.41 179.564C368.178 180.194 368.062 180.873 368.062 181.602C368.062 182.331 368.178 183.009 368.41 183.634C368.642 184.259 369 184.763 369.483 185.146C369.966 185.53 370.581 185.722 371.329 185.722ZM387.706 182.54V176.091H389.382V187H387.706V185.153H387.592C387.337 185.707 386.939 186.179 386.399 186.567C385.859 186.95 385.178 187.142 384.354 187.142C383.672 187.142 383.066 186.993 382.536 186.695C382.005 186.392 381.589 185.937 381.286 185.331C380.982 184.72 380.831 183.951 380.831 183.023V176.091H382.507V182.909C382.507 183.705 382.73 184.339 383.175 184.812C383.625 185.286 384.197 185.523 384.893 185.523C385.31 185.523 385.734 185.416 386.165 185.203C386.6 184.99 386.965 184.663 387.259 184.223C387.557 183.783 387.706 183.222 387.706 182.54ZM399.196 176.091V177.511H393.543V176.091H399.196ZM395.191 173.477H396.867V183.875C396.867 184.348 396.935 184.704 397.073 184.94C397.215 185.172 397.395 185.329 397.613 185.409C397.835 185.485 398.069 185.523 398.316 185.523C398.5 185.523 398.652 185.513 398.77 185.494C398.889 185.471 398.983 185.452 399.054 185.438L399.395 186.943C399.282 186.986 399.123 187.028 398.919 187.071C398.716 187.118 398.458 187.142 398.145 187.142C397.672 187.142 397.208 187.04 396.753 186.837C396.303 186.633 395.929 186.323 395.631 185.906C395.337 185.49 395.191 184.964 395.191 184.33V173.477ZM413.814 187L410.49 176.091H412.252L414.61 184.443H414.723L417.053 176.091H418.843L421.144 184.415H421.257L423.615 176.091H425.377L422.053 187H420.405L418.019 178.619H417.848L415.462 187H413.814ZM431.269 180.438V187H429.593V172.455H431.269V177.795H431.411C431.667 177.232 432.05 176.785 432.561 176.453C433.078 176.117 433.764 175.949 434.621 175.949C435.364 175.949 436.016 176.098 436.574 176.396C437.133 176.69 437.566 177.142 437.874 177.753C438.186 178.359 438.343 179.131 438.343 180.068V187H436.667V180.182C436.667 179.315 436.442 178.645 435.992 178.172C435.547 177.694 434.929 177.455 434.138 177.455C433.589 177.455 433.096 177.571 432.661 177.803C432.23 178.035 431.889 178.373 431.638 178.818C431.392 179.263 431.269 179.803 431.269 180.438ZM446.619 187.256C445.928 187.256 445.301 187.125 444.737 186.865C444.174 186.6 443.726 186.219 443.395 185.722C443.063 185.22 442.898 184.614 442.898 183.903C442.898 183.278 443.021 182.772 443.267 182.384C443.513 181.991 443.842 181.683 444.254 181.46C444.666 181.238 445.121 181.072 445.618 180.963C446.12 180.849 446.624 180.759 447.131 180.693C447.794 180.608 448.331 180.544 448.743 180.501C449.16 180.454 449.463 180.376 449.652 180.267C449.846 180.158 449.943 179.969 449.943 179.699V179.642C449.943 178.941 449.751 178.397 449.368 178.009C448.989 177.62 448.414 177.426 447.642 177.426C446.842 177.426 446.214 177.601 445.76 177.952C445.305 178.302 444.986 178.676 444.801 179.074L443.21 178.506C443.494 177.843 443.873 177.327 444.347 176.957C444.825 176.583 445.346 176.323 445.909 176.176C446.477 176.025 447.036 175.949 447.585 175.949C447.936 175.949 448.338 175.991 448.793 176.077C449.252 176.157 449.695 176.325 450.121 176.581C450.552 176.837 450.909 177.223 451.193 177.739C451.477 178.255 451.619 178.946 451.619 179.812V187H449.943V185.523H449.858C449.744 185.759 449.555 186.013 449.29 186.283C449.025 186.553 448.672 186.782 448.232 186.972C447.791 187.161 447.254 187.256 446.619 187.256ZM446.875 185.75C447.538 185.75 448.097 185.62 448.551 185.359C449.01 185.099 449.356 184.763 449.588 184.351C449.825 183.939 449.943 183.506 449.943 183.051V181.517C449.872 181.602 449.716 181.68 449.474 181.751C449.238 181.818 448.963 181.877 448.651 181.929C448.343 181.976 448.042 182.019 447.749 182.057C447.46 182.09 447.225 182.118 447.045 182.142C446.61 182.199 446.203 182.291 445.824 182.419C445.45 182.542 445.147 182.729 444.915 182.98C444.688 183.226 444.574 183.562 444.574 183.989C444.574 184.571 444.789 185.011 445.22 185.31C445.656 185.603 446.207 185.75 446.875 185.75ZM461.423 176.091V177.511H455.77V176.091H461.423ZM457.417 173.477H459.093V183.875C459.093 184.348 459.162 184.704 459.299 184.94C459.441 185.172 459.621 185.329 459.839 185.409C460.062 185.485 460.296 185.523 460.542 185.523C460.727 185.523 460.878 185.513 460.997 185.494C461.115 185.471 461.21 185.452 461.281 185.438L461.622 186.943C461.508 186.986 461.35 187.028 461.146 187.071C460.942 187.118 460.684 187.142 460.372 187.142C459.898 187.142 459.434 187.04 458.98 186.837C458.53 186.633 458.156 186.323 457.858 185.906C457.564 185.49 457.417 184.964 457.417 184.33V173.477ZM475.558 172.455V187H473.797V172.455H475.558ZM482.339 172.455V173.733C482.339 174.121 482.268 174.536 482.126 174.976C481.989 175.411 481.786 175.835 481.516 176.247C481.25 176.654 480.929 177.009 480.55 177.312L479.641 176.574C479.939 176.148 480.197 175.705 480.415 175.246C480.637 174.782 480.749 174.287 480.749 173.761V172.455H482.339ZM495.767 176.091L491.733 187H490.028L485.994 176.091H487.812L490.824 184.784H490.938L493.949 176.091H495.767ZM504.163 187.227C503.112 187.227 502.205 186.995 501.442 186.531C500.685 186.062 500.1 185.409 499.688 184.571C499.281 183.728 499.077 182.748 499.077 181.631C499.077 180.513 499.281 179.528 499.688 178.676C500.1 177.819 500.673 177.152 501.407 176.673C502.146 176.19 503.007 175.949 503.992 175.949C504.56 175.949 505.121 176.044 505.675 176.233C506.229 176.422 506.734 176.73 507.188 177.156C507.643 177.578 508.005 178.136 508.275 178.832C508.545 179.528 508.68 180.385 508.68 181.403V182.114H500.271V180.665H506.975C506.975 180.049 506.852 179.5 506.606 179.017C506.364 178.534 506.019 178.153 505.569 177.874C505.124 177.594 504.598 177.455 503.992 177.455C503.325 177.455 502.747 177.62 502.259 177.952C501.776 178.278 501.405 178.705 501.144 179.23C500.884 179.756 500.754 180.319 500.754 180.92V181.886C500.754 182.71 500.896 183.409 501.18 183.982C501.469 184.55 501.869 184.983 502.38 185.281C502.891 185.575 503.486 185.722 504.163 185.722C504.603 185.722 505.001 185.66 505.356 185.537C505.716 185.409 506.026 185.22 506.286 184.969C506.547 184.713 506.748 184.396 506.89 184.017L508.509 184.472C508.339 185.021 508.052 185.504 507.65 185.92C507.247 186.332 506.75 186.654 506.158 186.886C505.567 187.114 504.901 187.227 504.163 187.227ZM523.326 187L520.002 176.091H521.763L524.121 184.443H524.235L526.565 176.091H528.354L530.656 184.415H530.769L533.127 176.091H534.888L531.565 187H529.917L527.531 178.619H527.36L524.974 187H523.326ZM543.165 187.227C542.18 187.227 541.316 186.993 540.573 186.524C539.834 186.055 539.257 185.4 538.84 184.557C538.428 183.714 538.222 182.729 538.222 181.602C538.222 180.466 538.428 179.474 538.84 178.626C539.257 177.779 539.834 177.121 540.573 176.652C541.316 176.183 542.18 175.949 543.165 175.949C544.15 175.949 545.012 176.183 545.75 176.652C546.494 177.121 547.071 177.779 547.483 178.626C547.9 179.474 548.108 180.466 548.108 181.602C548.108 182.729 547.9 183.714 547.483 184.557C547.071 185.4 546.494 186.055 545.75 186.524C545.012 186.993 544.15 187.227 543.165 187.227ZM543.165 185.722C543.913 185.722 544.529 185.53 545.012 185.146C545.495 184.763 545.852 184.259 546.084 183.634C546.316 183.009 546.432 182.331 546.432 181.602C546.432 180.873 546.316 180.194 546.084 179.564C545.852 178.934 545.495 178.425 545.012 178.037C544.529 177.649 543.913 177.455 543.165 177.455C542.417 177.455 541.801 177.649 541.319 178.037C540.836 178.425 540.478 178.934 540.246 179.564C540.014 180.194 539.898 180.873 539.898 181.602C539.898 182.331 540.014 183.009 540.246 183.634C540.478 184.259 540.836 184.763 541.319 185.146C541.801 185.53 542.417 185.722 543.165 185.722ZM552.667 187V176.091H554.286V177.739H554.4C554.599 177.199 554.959 176.761 555.479 176.425C556 176.089 556.587 175.92 557.241 175.92C557.364 175.92 557.518 175.923 557.702 175.928C557.887 175.932 558.027 175.939 558.121 175.949V177.653C558.065 177.639 557.934 177.618 557.731 177.589C557.532 177.556 557.321 177.54 557.099 177.54C556.568 177.54 556.095 177.651 555.678 177.874C555.266 178.091 554.94 178.394 554.698 178.783C554.461 179.166 554.343 179.604 554.343 180.097V187H552.667ZM563.671 183.023L563.642 180.949H563.983L568.756 176.091H570.83L565.745 181.233H565.603L563.671 183.023ZM562.108 187V172.455H563.784V187H562.108ZM569.04 187L564.779 181.602L565.972 180.438L571.171 187H569.04ZM579.112 187.227C578.061 187.227 577.154 186.995 576.392 186.531C575.634 186.062 575.049 185.409 574.637 184.571C574.23 183.728 574.027 182.748 574.027 181.631C574.027 180.513 574.23 179.528 574.637 178.676C575.049 177.819 575.622 177.152 576.356 176.673C577.095 176.19 577.957 175.949 578.941 175.949C579.51 175.949 580.071 176.044 580.625 176.233C581.179 176.422 581.683 176.73 582.137 177.156C582.592 177.578 582.954 178.136 583.224 178.832C583.494 179.528 583.629 180.385 583.629 181.403V182.114H575.22V180.665H581.924C581.924 180.049 581.801 179.5 581.555 179.017C581.314 178.534 580.968 178.153 580.518 177.874C580.073 177.594 579.547 177.455 578.941 177.455C578.274 177.455 577.696 177.62 577.208 177.952C576.725 178.278 576.354 178.705 576.093 179.23C575.833 179.756 575.703 180.319 575.703 180.92V181.886C575.703 182.71 575.845 183.409 576.129 183.982C576.418 184.55 576.818 184.983 577.329 185.281C577.841 185.575 578.435 185.722 579.112 185.722C579.552 185.722 579.95 185.66 580.305 185.537C580.665 185.409 580.975 185.22 581.235 184.969C581.496 184.713 581.697 184.396 581.839 184.017L583.458 184.472C583.288 185.021 583.002 185.504 582.599 185.92C582.197 186.332 581.699 186.654 581.108 186.886C580.516 187.114 579.85 187.227 579.112 187.227ZM592.298 187.227C591.389 187.227 590.586 186.998 589.89 186.538C589.194 186.074 588.65 185.421 588.257 184.578C587.864 183.731 587.667 182.729 587.667 181.574C587.667 180.428 587.864 179.434 588.257 178.591C588.65 177.748 589.197 177.097 589.897 176.638C590.598 176.179 591.408 175.949 592.326 175.949C593.037 175.949 593.598 176.067 594.01 176.304C594.426 176.536 594.743 176.801 594.961 177.099C595.184 177.393 595.357 177.634 595.48 177.824H595.622V172.455H597.298V187H595.679V185.324H595.48C595.357 185.523 595.181 185.774 594.954 186.077C594.727 186.375 594.403 186.643 593.981 186.879C593.56 187.111 592.999 187.227 592.298 187.227ZM592.525 185.722C593.198 185.722 593.766 185.546 594.23 185.196C594.694 184.841 595.047 184.351 595.288 183.726C595.529 183.096 595.65 182.369 595.65 181.545C595.65 180.731 595.532 180.018 595.295 179.408C595.058 178.792 594.708 178.314 594.244 177.973C593.78 177.627 593.207 177.455 592.525 177.455C591.815 177.455 591.223 177.637 590.75 178.001C590.281 178.361 589.928 178.851 589.691 179.472C589.459 180.087 589.343 180.778 589.343 181.545C589.343 182.322 589.462 183.027 589.699 183.662C589.94 184.292 590.295 184.794 590.764 185.168C591.237 185.537 591.824 185.722 592.525 185.722ZM614.657 187.227C613.672 187.227 612.808 186.993 612.065 186.524C611.326 186.055 610.749 185.4 610.332 184.557C609.92 183.714 609.714 182.729 609.714 181.602C609.714 180.466 609.92 179.474 610.332 178.626C610.749 177.779 611.326 177.121 612.065 176.652C612.808 176.183 613.672 175.949 614.657 175.949C615.642 175.949 616.504 176.183 617.243 176.652C617.986 177.121 618.564 177.779 618.975 178.626C619.392 179.474 619.6 180.466 619.6 181.602C619.6 182.729 619.392 183.714 618.975 184.557C618.564 185.4 617.986 186.055 617.243 186.524C616.504 186.993 615.642 187.227 614.657 187.227ZM614.657 185.722C615.405 185.722 616.021 185.53 616.504 185.146C616.987 184.763 617.344 184.259 617.576 183.634C617.808 183.009 617.924 182.331 617.924 181.602C617.924 180.873 617.808 180.194 617.576 179.564C617.344 178.934 616.987 178.425 616.504 178.037C616.021 177.649 615.405 177.455 614.657 177.455C613.909 177.455 613.294 177.649 612.811 178.037C612.328 178.425 611.97 178.934 611.738 179.564C611.506 180.194 611.39 180.873 611.39 181.602C611.39 182.331 611.506 183.009 611.738 183.634C611.97 184.259 612.328 184.763 612.811 185.146C613.294 185.53 613.909 185.722 614.657 185.722ZM625.835 180.438V187H624.159V176.091H625.778V177.795H625.92C626.176 177.241 626.564 176.796 627.085 176.46C627.606 176.119 628.278 175.949 629.102 175.949C629.841 175.949 630.487 176.1 631.041 176.403C631.595 176.702 632.026 177.156 632.334 177.767C632.642 178.373 632.795 179.14 632.795 180.068V187H631.119V180.182C631.119 179.325 630.897 178.657 630.452 178.179C630.007 177.696 629.396 177.455 628.619 177.455C628.084 177.455 627.606 177.571 627.185 177.803C626.768 178.035 626.439 178.373 626.197 178.818C625.956 179.263 625.835 179.803 625.835 180.438ZM640.358 185.011L640.245 185.778C640.164 186.318 640.041 186.896 639.875 187.511C639.714 188.127 639.546 188.707 639.371 189.251C639.196 189.796 639.051 190.229 638.938 190.551H637.659C637.721 190.248 637.801 189.848 637.901 189.351C638 188.854 638.1 188.297 638.199 187.682C638.303 187.071 638.389 186.446 638.455 185.807L638.54 185.011H640.358ZM656.299 187.256C655.608 187.256 654.98 187.125 654.417 186.865C653.853 186.6 653.406 186.219 653.075 185.722C652.743 185.22 652.577 184.614 652.577 183.903C652.577 183.278 652.701 182.772 652.947 182.384C653.193 181.991 653.522 181.683 653.934 181.46C654.346 181.238 654.8 181.072 655.298 180.963C655.799 180.849 656.304 180.759 656.81 180.693C657.473 180.608 658.011 180.544 658.423 180.501C658.839 180.454 659.142 180.376 659.332 180.267C659.526 180.158 659.623 179.969 659.623 179.699V179.642C659.623 178.941 659.431 178.397 659.048 178.009C658.669 177.62 658.094 177.426 657.322 177.426C656.522 177.426 655.894 177.601 655.44 177.952C654.985 178.302 654.665 178.676 654.481 179.074L652.89 178.506C653.174 177.843 653.553 177.327 654.026 176.957C654.504 176.583 655.025 176.323 655.589 176.176C656.157 176.025 656.716 175.949 657.265 175.949C657.615 175.949 658.018 175.991 658.472 176.077C658.932 176.157 659.374 176.325 659.8 176.581C660.231 176.837 660.589 177.223 660.873 177.739C661.157 178.255 661.299 178.946 661.299 179.812V187H659.623V185.523H659.538C659.424 185.759 659.235 186.013 658.969 186.283C658.704 186.553 658.352 186.782 657.911 186.972C657.471 187.161 656.933 187.256 656.299 187.256ZM656.555 185.75C657.218 185.75 657.776 185.62 658.231 185.359C658.69 185.099 659.036 184.763 659.268 184.351C659.504 183.939 659.623 183.506 659.623 183.051V181.517C659.552 181.602 659.396 181.68 659.154 181.751C658.917 181.818 658.643 181.877 658.33 181.929C658.022 181.976 657.722 182.019 657.428 182.057C657.139 182.09 656.905 182.118 656.725 182.142C656.29 182.199 655.882 182.291 655.504 182.419C655.129 182.542 654.826 182.729 654.594 182.98C654.367 183.226 654.254 183.562 654.254 183.989C654.254 184.571 654.469 185.011 654.9 185.31C655.335 185.603 655.887 185.75 656.555 185.75ZM668.034 180.438V187H666.358V176.091H667.978V177.795H668.12C668.375 177.241 668.764 176.796 669.284 176.46C669.805 176.119 670.478 175.949 671.301 175.949C672.04 175.949 672.686 176.1 673.24 176.403C673.794 176.702 674.225 177.156 674.533 177.767C674.841 178.373 674.995 179.14 674.995 180.068V187H673.319V180.182C673.319 179.325 673.096 178.657 672.651 178.179C672.206 177.696 671.595 177.455 670.819 177.455C670.283 177.455 669.805 177.571 669.384 177.803C668.967 178.035 668.638 178.373 668.397 178.818C668.155 179.263 668.034 179.803 668.034 180.438ZM684.177 187.227C683.268 187.227 682.465 186.998 681.769 186.538C681.073 186.074 680.529 185.421 680.136 184.578C679.743 183.731 679.546 182.729 679.546 181.574C679.546 180.428 679.743 179.434 680.136 178.591C680.529 177.748 681.076 177.097 681.776 176.638C682.477 176.179 683.287 175.949 684.205 175.949C684.915 175.949 685.477 176.067 685.888 176.304C686.305 176.536 686.622 176.801 686.84 177.099C687.063 177.393 687.236 177.634 687.359 177.824H687.501V172.455H689.177V187H687.558V185.324H687.359C687.236 185.523 687.06 185.774 686.833 186.077C686.606 186.375 686.281 186.643 685.86 186.879C685.439 187.111 684.878 187.227 684.177 187.227ZM684.404 185.722C685.076 185.722 685.645 185.546 686.109 185.196C686.573 184.841 686.925 184.351 687.167 183.726C687.408 183.096 687.529 182.369 687.529 181.545C687.529 180.731 687.411 180.018 687.174 179.408C686.937 178.792 686.587 178.314 686.123 177.973C685.659 177.627 685.086 177.455 684.404 177.455C683.694 177.455 683.102 177.637 682.629 178.001C682.16 178.361 681.807 178.851 681.57 179.472C681.338 180.087 681.222 180.778 681.222 181.545C681.222 182.322 681.341 183.027 681.577 183.662C681.819 184.292 682.174 184.794 682.643 185.168C683.116 185.537 683.703 185.722 684.404 185.722ZM282.99 211L279.666 200.091H281.428L283.786 208.443H283.899L286.229 200.091H288.018L290.32 208.415H290.433L292.791 200.091H294.553L291.229 211H289.581L287.195 202.619H287.024L284.638 211H282.99ZM300.445 204.438V211H298.768V196.455H300.445V201.795H300.587C300.842 201.232 301.226 200.785 301.737 200.453C302.253 200.117 302.94 199.949 303.797 199.949C304.54 199.949 305.191 200.098 305.75 200.396C306.309 200.69 306.742 201.142 307.05 201.753C307.362 202.359 307.518 203.131 307.518 204.068V211H305.842V204.182C305.842 203.315 305.617 202.645 305.168 202.172C304.723 201.694 304.105 201.455 303.314 201.455C302.765 201.455 302.272 201.571 301.837 201.803C301.406 202.035 301.065 202.373 300.814 202.818C300.568 203.263 300.445 203.803 300.445 204.438ZM315.795 211.256C315.104 211.256 314.476 211.125 313.913 210.865C313.35 210.6 312.902 210.219 312.571 209.722C312.239 209.22 312.074 208.614 312.074 207.903C312.074 207.278 312.197 206.772 312.443 206.384C312.689 205.991 313.018 205.683 313.43 205.46C313.842 205.238 314.297 205.072 314.794 204.963C315.296 204.849 315.8 204.759 316.306 204.693C316.969 204.608 317.507 204.544 317.919 204.501C318.335 204.454 318.638 204.376 318.828 204.267C319.022 204.158 319.119 203.969 319.119 203.699V203.642C319.119 202.941 318.927 202.397 318.544 202.009C318.165 201.62 317.59 201.426 316.818 201.426C316.018 201.426 315.39 201.601 314.936 201.952C314.481 202.302 314.162 202.676 313.977 203.074L312.386 202.506C312.67 201.843 313.049 201.327 313.522 200.957C314.001 200.583 314.521 200.323 315.085 200.176C315.653 200.025 316.212 199.949 316.761 199.949C317.111 199.949 317.514 199.991 317.968 200.077C318.428 200.157 318.87 200.325 319.297 200.581C319.727 200.837 320.085 201.223 320.369 201.739C320.653 202.255 320.795 202.946 320.795 203.812V211H319.119V209.523H319.034C318.92 209.759 318.731 210.013 318.466 210.283C318.2 210.553 317.848 210.782 317.407 210.972C316.967 211.161 316.43 211.256 315.795 211.256ZM316.051 209.75C316.714 209.75 317.272 209.62 317.727 209.359C318.186 209.099 318.532 208.763 318.764 208.351C319.001 207.939 319.119 207.506 319.119 207.051V205.517C319.048 205.602 318.892 205.68 318.65 205.751C318.413 205.818 318.139 205.877 317.826 205.929C317.519 205.976 317.218 206.019 316.924 206.057C316.636 206.09 316.401 206.118 316.221 206.142C315.786 206.199 315.378 206.291 315 206.419C314.626 206.542 314.323 206.729 314.091 206.98C313.863 207.226 313.75 207.562 313.75 207.989C313.75 208.571 313.965 209.011 314.396 209.31C314.832 209.603 315.383 209.75 316.051 209.75ZM330.599 200.091V201.511H324.945V200.091H330.599ZM326.593 197.477H328.269V207.875C328.269 208.348 328.338 208.704 328.475 208.94C328.617 209.172 328.797 209.329 329.015 209.409C329.237 209.485 329.472 209.523 329.718 209.523C329.903 209.523 330.054 209.513 330.173 209.494C330.291 209.471 330.386 209.452 330.457 209.438L330.798 210.943C330.684 210.986 330.525 211.028 330.322 211.071C330.118 211.118 329.86 211.142 329.548 211.142C329.074 211.142 328.61 211.04 328.156 210.837C327.706 210.633 327.332 210.323 327.033 209.906C326.74 209.49 326.593 208.964 326.593 208.33V197.477ZM344.734 196.455V211H342.972V196.455H344.734ZM351.515 196.455V197.733C351.515 198.121 351.444 198.536 351.302 198.976C351.165 199.411 350.961 199.835 350.691 200.247C350.426 200.654 350.104 201.009 349.725 201.312L348.816 200.574C349.115 200.148 349.373 199.705 349.591 199.246C349.813 198.782 349.924 198.287 349.924 197.761V196.455H351.515ZM355.3 211V200.091H356.919V201.795H357.061C357.288 201.213 357.655 200.761 358.162 200.439C358.669 200.112 359.277 199.949 359.987 199.949C360.707 199.949 361.306 200.112 361.784 200.439C362.267 200.761 362.643 201.213 362.913 201.795H363.027C363.306 201.232 363.725 200.785 364.284 200.453C364.843 200.117 365.513 199.949 366.294 199.949C367.269 199.949 368.067 200.254 368.688 200.865C369.308 201.471 369.618 202.416 369.618 203.699V211H367.942V203.699C367.942 202.894 367.722 202.319 367.281 201.973C366.841 201.627 366.322 201.455 365.726 201.455C364.959 201.455 364.365 201.687 363.943 202.151C363.522 202.61 363.311 203.192 363.311 203.898V211H361.607V203.528C361.607 202.908 361.405 202.409 361.003 202.03C360.6 201.646 360.082 201.455 359.447 201.455C359.012 201.455 358.605 201.571 358.226 201.803C357.852 202.035 357.549 202.357 357.317 202.768C357.089 203.176 356.976 203.647 356.976 204.182V211H355.3ZM384.779 211L381.455 200.091H383.217L385.575 208.443H385.688L388.018 200.091H389.808L392.109 208.415H392.222L394.58 200.091H396.342L393.018 211H391.37L388.984 202.619H388.813L386.427 211H384.779ZM404.618 211.227C403.633 211.227 402.769 210.993 402.026 210.524C401.287 210.055 400.71 209.4 400.293 208.557C399.881 207.714 399.675 206.729 399.675 205.602C399.675 204.466 399.881 203.474 400.293 202.626C400.71 201.779 401.287 201.121 402.026 200.652C402.769 200.183 403.633 199.949 404.618 199.949C405.603 199.949 406.465 200.183 407.203 200.652C407.947 201.121 408.525 201.779 408.936 202.626C409.353 203.474 409.561 204.466 409.561 205.602C409.561 206.729 409.353 207.714 408.936 208.557C408.525 209.4 407.947 210.055 407.203 210.524C406.465 210.993 405.603 211.227 404.618 211.227ZM404.618 209.722C405.366 209.722 405.982 209.53 406.465 209.146C406.948 208.763 407.305 208.259 407.537 207.634C407.769 207.009 407.885 206.331 407.885 205.602C407.885 204.873 407.769 204.194 407.537 203.564C407.305 202.934 406.948 202.425 406.465 202.037C405.982 201.649 405.366 201.455 404.618 201.455C403.87 201.455 403.255 201.649 402.772 202.037C402.289 202.425 401.931 202.934 401.699 203.564C401.467 204.194 401.351 204.873 401.351 205.602C401.351 206.331 401.467 207.009 401.699 207.634C401.931 208.259 402.289 208.763 402.772 209.146C403.255 209.53 403.87 209.722 404.618 209.722ZM414.12 211V200.091H415.739V201.739H415.853C416.052 201.199 416.412 200.761 416.933 200.425C417.453 200.089 418.04 199.92 418.694 199.92C418.817 199.92 418.971 199.923 419.156 199.928C419.34 199.932 419.48 199.939 419.575 199.949V201.653C419.518 201.639 419.388 201.618 419.184 201.589C418.985 201.556 418.774 201.54 418.552 201.54C418.022 201.54 417.548 201.651 417.131 201.874C416.719 202.091 416.393 202.394 416.151 202.783C415.915 203.166 415.796 203.604 415.796 204.097V211H414.12ZM425.124 207.023L425.096 204.949H425.436L430.209 200.091H432.283L427.198 205.233H427.056L425.124 207.023ZM423.561 211V196.455H425.238V211H423.561ZM430.493 211L426.232 205.602L427.425 204.438L432.624 211H430.493ZM436.44 211V200.091H438.116V211H436.44ZM437.293 198.273C436.966 198.273 436.684 198.161 436.447 197.939C436.215 197.716 436.099 197.449 436.099 197.136C436.099 196.824 436.215 196.556 436.447 196.334C436.684 196.111 436.966 196 437.293 196C437.619 196 437.899 196.111 438.131 196.334C438.367 196.556 438.486 196.824 438.486 197.136C438.486 197.449 438.367 197.716 438.131 197.939C437.899 198.161 437.619 198.273 437.293 198.273ZM444.863 204.438V211H443.186V200.091H444.806V201.795H444.948C445.203 201.241 445.592 200.796 446.113 200.46C446.633 200.119 447.306 199.949 448.13 199.949C448.868 199.949 449.515 200.1 450.069 200.403C450.623 200.702 451.053 201.156 451.361 201.767C451.669 202.373 451.823 203.14 451.823 204.068V211H450.147V204.182C450.147 203.325 449.924 202.657 449.479 202.179C449.034 201.696 448.423 201.455 447.647 201.455C447.112 201.455 446.633 201.571 446.212 201.803C445.795 202.035 445.466 202.373 445.225 202.818C444.983 203.263 444.863 203.803 444.863 204.438ZM461.289 215.318C460.479 215.318 459.783 215.214 459.201 215.006C458.619 214.802 458.133 214.532 457.745 214.196C457.362 213.865 457.056 213.509 456.829 213.131L458.164 212.193C458.316 212.392 458.507 212.619 458.739 212.875C458.971 213.135 459.289 213.36 459.691 213.55C460.098 213.744 460.631 213.841 461.289 213.841C462.17 213.841 462.897 213.628 463.469 213.202C464.042 212.776 464.329 212.108 464.329 211.199V208.983H464.187C464.064 209.182 463.888 209.428 463.661 209.722C463.439 210.01 463.117 210.268 462.695 210.496C462.279 210.718 461.715 210.83 461.005 210.83C460.124 210.83 459.334 210.621 458.633 210.205C457.937 209.788 457.385 209.182 456.978 208.386C456.576 207.591 456.374 206.625 456.374 205.489C456.374 204.371 456.571 203.398 456.964 202.57C457.357 201.736 457.904 201.092 458.604 200.638C459.305 200.179 460.115 199.949 461.033 199.949C461.744 199.949 462.307 200.067 462.724 200.304C463.145 200.536 463.467 200.801 463.69 201.099C463.917 201.393 464.092 201.634 464.215 201.824H464.386V200.091H466.005V211.312C466.005 212.25 465.792 213.012 465.366 213.599C464.944 214.191 464.376 214.625 463.661 214.899C462.951 215.179 462.16 215.318 461.289 215.318ZM461.232 209.324C461.905 209.324 462.473 209.17 462.937 208.862C463.401 208.554 463.754 208.112 463.995 207.534C464.237 206.956 464.357 206.265 464.357 205.46C464.357 204.674 464.239 203.981 464.002 203.379C463.765 202.778 463.415 202.307 462.951 201.966C462.487 201.625 461.914 201.455 461.232 201.455C460.522 201.455 459.93 201.634 459.457 201.994C458.988 202.354 458.635 202.837 458.398 203.443C458.166 204.049 458.05 204.722 458.05 205.46C458.05 206.218 458.169 206.888 458.406 207.47C458.647 208.048 459.002 208.502 459.471 208.834C459.944 209.161 460.531 209.324 461.232 209.324ZM483.13 211.227C482.145 211.227 481.281 210.993 480.538 210.524C479.799 210.055 479.221 209.4 478.805 208.557C478.393 207.714 478.187 206.729 478.187 205.602C478.187 204.466 478.393 203.474 478.805 202.626C479.221 201.779 479.799 201.121 480.538 200.652C481.281 200.183 482.145 199.949 483.13 199.949C484.115 199.949 484.977 200.183 485.715 200.652C486.459 201.121 487.036 201.779 487.448 202.626C487.865 203.474 488.073 204.466 488.073 205.602C488.073 206.729 487.865 207.714 487.448 208.557C487.036 209.4 486.459 210.055 485.715 210.524C484.977 210.993 484.115 211.227 483.13 211.227ZM483.13 209.722C483.878 209.722 484.494 209.53 484.977 209.146C485.46 208.763 485.817 208.259 486.049 207.634C486.281 207.009 486.397 206.331 486.397 205.602C486.397 204.873 486.281 204.194 486.049 203.564C485.817 202.934 485.46 202.425 484.977 202.037C484.494 201.649 483.878 201.455 483.13 201.455C482.382 201.455 481.766 201.649 481.283 202.037C480.8 202.425 480.443 202.934 480.211 203.564C479.979 204.194 479.863 204.873 479.863 205.602C479.863 206.331 479.979 207.009 480.211 207.634C480.443 208.259 480.8 208.763 481.283 209.146C481.766 209.53 482.382 209.722 483.13 209.722ZM494.308 204.438V211H492.632V200.091H494.251V201.795H494.393C494.649 201.241 495.037 200.796 495.558 200.46C496.079 200.119 496.751 199.949 497.575 199.949C498.314 199.949 498.96 200.1 499.514 200.403C500.068 200.702 500.499 201.156 500.806 201.767C501.114 202.373 501.268 203.14 501.268 204.068V211H499.592V204.182C499.592 203.325 499.369 202.657 498.924 202.179C498.479 201.696 497.868 201.455 497.092 201.455C496.557 201.455 496.079 201.571 495.657 201.803C495.241 202.035 494.912 202.373 494.67 202.818C494.429 203.263 494.308 203.803 494.308 204.438ZM513.956 211V200.091H515.575V201.739H515.689C515.888 201.199 516.248 200.761 516.768 200.425C517.289 200.089 517.876 199.92 518.53 199.92C518.653 199.92 518.807 199.923 518.991 199.928C519.176 199.932 519.316 199.939 519.411 199.949V201.653C519.354 201.639 519.223 201.618 519.02 201.589C518.821 201.556 518.61 201.54 518.388 201.54C517.857 201.54 517.384 201.651 516.967 201.874C516.555 202.091 516.229 202.394 515.987 202.783C515.75 203.166 515.632 203.604 515.632 204.097V211H513.956ZM523.397 211V200.091H525.074V211H523.397ZM524.25 198.273C523.923 198.273 523.641 198.161 523.404 197.939C523.172 197.716 523.056 197.449 523.056 197.136C523.056 196.824 523.172 196.556 523.404 196.334C523.641 196.111 523.923 196 524.25 196C524.576 196 524.856 196.111 525.088 196.334C525.324 196.556 525.443 196.824 525.443 197.136C525.443 197.449 525.324 197.716 525.088 197.939C524.856 198.161 524.576 198.273 524.25 198.273ZM534.547 215.318C533.737 215.318 533.041 215.214 532.459 215.006C531.876 214.802 531.391 214.532 531.003 214.196C530.619 213.865 530.314 213.509 530.087 213.131L531.422 212.193C531.573 212.392 531.765 212.619 531.997 212.875C532.229 213.135 532.546 213.36 532.949 213.55C533.356 213.744 533.889 213.841 534.547 213.841C535.428 213.841 536.154 213.628 536.727 213.202C537.3 212.776 537.587 212.108 537.587 211.199V208.983H537.445C537.321 209.182 537.146 209.428 536.919 209.722C536.696 210.01 536.375 210.268 535.953 210.496C535.536 210.718 534.973 210.83 534.263 210.83C533.382 210.83 532.591 210.621 531.891 210.205C531.195 209.788 530.643 209.182 530.236 208.386C529.833 207.591 529.632 206.625 529.632 205.489C529.632 204.371 529.829 203.398 530.222 202.57C530.615 201.736 531.161 201.092 531.862 200.638C532.563 200.179 533.373 199.949 534.291 199.949C535.001 199.949 535.565 200.067 535.982 200.304C536.403 200.536 536.725 200.801 536.947 201.099C537.175 201.393 537.35 201.634 537.473 201.824H537.643V200.091H539.263V211.312C539.263 212.25 539.05 213.012 538.624 213.599C538.202 214.191 537.634 214.625 536.919 214.899C536.209 215.179 535.418 215.318 534.547 215.318ZM534.49 209.324C535.162 209.324 535.731 209.17 536.195 208.862C536.659 208.554 537.011 208.112 537.253 207.534C537.494 206.956 537.615 206.265 537.615 205.46C537.615 204.674 537.497 203.981 537.26 203.379C537.023 202.778 536.673 202.307 536.209 201.966C535.745 201.625 535.172 201.455 534.49 201.455C533.78 201.455 533.188 201.634 532.714 201.994C532.246 202.354 531.893 202.837 531.656 203.443C531.424 204.049 531.308 204.722 531.308 205.46C531.308 206.218 531.427 206.888 531.663 207.47C531.905 208.048 532.26 208.502 532.729 208.834C533.202 209.161 533.789 209.324 534.49 209.324ZM546.007 204.438V211H544.331V196.455H546.007V201.795H546.149C546.405 201.232 546.788 200.785 547.3 200.453C547.816 200.117 548.502 199.949 549.359 199.949C550.103 199.949 550.754 200.098 551.312 200.396C551.871 200.69 552.304 201.142 552.612 201.753C552.925 202.359 553.081 203.131 553.081 204.068V211H551.405V204.182C551.405 203.315 551.18 202.645 550.73 202.172C550.285 201.694 549.667 201.455 548.876 201.455C548.327 201.455 547.835 201.571 547.399 201.803C546.968 202.035 546.627 202.373 546.376 202.818C546.13 203.263 546.007 203.803 546.007 204.438ZM562.892 200.091V201.511H557.238V200.091H562.892ZM558.886 197.477H560.562V207.875C560.562 208.348 560.631 208.704 560.768 208.94C560.91 209.172 561.09 209.329 561.308 209.409C561.53 209.485 561.765 209.523 562.011 209.523C562.196 209.523 562.347 209.513 562.466 209.494C562.584 209.471 562.679 209.452 562.75 209.438L563.091 210.943C562.977 210.986 562.818 211.028 562.615 211.071C562.411 211.118 562.153 211.142 561.841 211.142C561.367 211.142 560.903 211.04 560.449 210.837C559.999 210.633 559.625 210.323 559.326 209.906C559.033 209.49 558.886 208.964 558.886 208.33V197.477ZM576.714 204.438V211H575.038V200.091H576.657V201.795H576.799C577.055 201.241 577.443 200.796 577.964 200.46C578.485 200.119 579.157 199.949 579.981 199.949C580.72 199.949 581.366 200.1 581.92 200.403C582.474 200.702 582.905 201.156 583.213 201.767C583.52 202.373 583.674 203.14 583.674 204.068V211H581.998V204.182C581.998 203.325 581.776 202.657 581.331 202.179C580.886 201.696 580.275 201.455 579.498 201.455C578.963 201.455 578.485 201.571 578.064 201.803C577.647 202.035 577.318 202.373 577.076 202.818C576.835 203.263 576.714 203.803 576.714 204.438ZM593.169 211.227C592.184 211.227 591.32 210.993 590.577 210.524C589.838 210.055 589.26 209.4 588.844 208.557C588.432 207.714 588.226 206.729 588.226 205.602C588.226 204.466 588.432 203.474 588.844 202.626C589.26 201.779 589.838 201.121 590.577 200.652C591.32 200.183 592.184 199.949 593.169 199.949C594.154 199.949 595.016 200.183 595.754 200.652C596.498 201.121 597.075 201.779 597.487 202.626C597.904 203.474 598.112 204.466 598.112 205.602C598.112 206.729 597.904 207.714 597.487 208.557C597.075 209.4 596.498 210.055 595.754 210.524C595.016 210.993 594.154 211.227 593.169 211.227ZM593.169 209.722C593.917 209.722 594.533 209.53 595.016 209.146C595.499 208.763 595.856 208.259 596.088 207.634C596.32 207.009 596.436 206.331 596.436 205.602C596.436 204.873 596.32 204.194 596.088 203.564C595.856 202.934 595.499 202.425 595.016 202.037C594.533 201.649 593.917 201.455 593.169 201.455C592.421 201.455 591.805 201.649 591.322 202.037C590.839 202.425 590.482 202.934 590.25 203.564C590.018 204.194 589.902 204.873 589.902 205.602C589.902 206.331 590.018 207.009 590.25 207.634C590.482 208.259 590.839 208.763 591.322 209.146C591.805 209.53 592.421 209.722 593.169 209.722ZM604.771 211L601.447 200.091H603.209L605.567 208.443H605.68L608.01 200.091H609.8L612.101 208.415H612.214L614.572 200.091H616.334L613.01 211H611.362L608.976 202.619H608.805L606.419 211H604.771Z" fill="white"/>
<defs>
<filter id="filter0_d_1_21" x="2.49965" y="9.49936" width="88" height="145.001" filterUnits="userSpaceOnUse" color-interpolation-filters="sRGB">
<feFlood flood-opacity="0" result="BackgroundImageFix"/>
<feColorMatrix in="SourceAlpha" type="matrix" values="0 0 0 0 0 0 0 0 0 0 0 0 0 0 0 0 0 0 127 0" result="hardAlpha"/>
<feOffset dy="4"/>
<feGaussianBlur stdDeviation="2"/>
<feComposite in2="hardAlpha" operator="out"/>
<feColorMatrix type="matrix" values="0 0 0 0 0 0 0 0 0 0 0 0 0 0 0 0 0 0 0.25 0"/>
<feBlend mode="normal" in2="BackgroundImageFix" result="effect1_dropShadow_1_21"/>
<feBlend mode="normal" in="SourceGraphic" in2="effect1_dropShadow_1_21" result="shape"/>
</filter>
<filter id="filter1_d_1_21" x="0.499458" y="61.4981" width="98.0025" height="58.0025" filterUnits="userSpaceOnUse" color-interpolation-filters="sRGB">
<feFlood flood-opacity="0" result="BackgroundImageFix"/>
<feColorMatrix in="SourceAlpha" type="matrix" values="0 0 0 0 0 0 0 0 0 0 0 0 0 0 0 0 0 0 127 0" result="hardAlpha"/>
<feOffset dy="4"/>
<feGaussianBlur stdDeviation="2"/>
<feComposite in2="hardAlpha" operator="out"/>
<feColorMatrix type="matrix" values="0 0 0 0 0 0 0 0 0 0 0 0 0 0 0 0 0 0 0.25 0"/>
<feBlend mode="normal" in2="BackgroundImageFix" result="effect1_dropShadow_1_21"/>
<feBlend mode="normal" in="SourceGraphic" in2="effect1_dropShadow_1_21" result="shape"/>
</filter>
<filter id="filter2_d_1_21" x="93.4981" y="48.9644" width="40.0028" height="76.0025" filterUnits="userSpaceOnUse" color-interpolation-filters="sRGB">
<feFlood flood-opacity="0" result="BackgroundImageFix"/>
<feColorMatrix in="SourceAlpha" type="matrix" values="0 0 0 0 0 0 0 0 0 0 0 0 0 0 0 0 0 0 127 0" result="hardAlpha"/>
<feOffset dy="4"/>
<feGaussianBlur stdDeviation="2"/>
<feComposite in2="hardAlpha" operator="out"/>
<feColorMatrix type="matrix" values="0 0 0 0 0 0 0 0 0 0 0 0 0 0 0 0 0 0 0.25 0"/>
<feBlend mode="normal" in2="BackgroundImageFix" result="effect1_dropShadow_1_21"/>
<feBlend mode="normal" in="SourceGraphic" in2="effect1_dropShadow_1_21" result="shape"/>
</filter>
<filter id="filter3_d_1_21" x="105.5" y="44.4984" width="84.0005" height="75.1844" filterUnits="userSpaceOnUse" color-interpolation-filters="sRGB">
<feFlood flood-opacity="0" result="BackgroundImageFix"/>
<feColorMatrix in="SourceAlpha" type="matrix" values="0 0 0 0 0 0 0 0 0 0 0 0 0 0 0 0 0 0 127 0" result="hardAlpha"/>
<feOffset dy="4"/>
<feGaussianBlur stdDeviation="2"/>
<feComposite in2="hardAlpha" operator="out"/>
<feColorMatrix type="matrix" values="0 0 0 0 0 0 0 0 0 0 0 0 0 0 0 0 0 0 0.25 0"/>
<feBlend mode="normal" in2="BackgroundImageFix" result="effect1_dropShadow_1_21"/>
<feBlend mode="normal" in="SourceGraphic" in2="effect1_dropShadow_1_21" result="shape"/>
</filter>
<filter id="filter4_d_1_21" x="20.5003" y="54.4991" width="292.51" height="167.916" filterUnits="userSpaceOnUse" color-interpolation-filters="sRGB">
<feFlood flood-opacity="0" result="BackgroundImageFix"/>
<feColorMatrix in="SourceAlpha" type="matrix" values="0 0 0 0 0 0 0 0 0 0 0 0 0 0 0 0 0 0 127 0" result="hardAlpha"/>
<feOffset dy="4"/>
<feGaussianBlur stdDeviation="2"/>
<feComposite in2="hardAlpha" operator="out"/>
<feColorMatrix type="matrix" values="0 0 0 0 0 0 0 0 0 0 0 0 0 0 0 0 0 0 0.25 0"/>
<feBlend mode="normal" in2="BackgroundImageFix" result="effect1_dropShadow_1_21"/>
<feBlend mode="normal" in="SourceGraphic" in2="effect1_dropShadow_1_21" result="shape"/>
</filter>
<filter id="filter5_d_1_21" x="176.218" y="48.5" width="71.2819" height="56.4801" filterUnits="userSpaceOnUse" color-interpolation-filters="sRGB">
<feFlood flood-opacity="0" result="BackgroundImageFix"/>
<feColorMatrix in="SourceAlpha" type="matrix" values="0 0 0 0 0 0 0 0 0 0 0 0 0 0 0 0 0 0 127 0" result="hardAlpha"/>
<feOffset dy="4"/>
<feGaussianBlur stdDeviation="2"/>
<feComposite in2="hardAlpha" operator="out"/>
<feColorMatrix type="matrix" values="0 0 0 0 0 0 0 0 0 0 0 0 0 0 0 0 0 0 0.25 0"/>
<feBlend mode="normal" in2="BackgroundImageFix" result="effect1_dropShadow_1_21"/>
<feBlend mode="normal" in="SourceGraphic" in2="effect1_dropShadow_1_21" result="shape"/>
</filter>
<filter id="filter6_d_1_21" x="283.504" y="55.0036" width="29.848" height="57.2559" filterUnits="userSpaceOnUse" color-interpolation-filters="sRGB">
<feFlood flood-opacity="0" result="BackgroundImageFix"/>
<feColorMatrix in="SourceAlpha" type="matrix" values="0 0 0 0 0 0 0 0 0 0 0 0 0 0 0 0 0 0 127 0" result="hardAlpha"/>
<feOffset dy="4"/>
<feGaussianBlur stdDeviation="2"/>
<feComposite in2="hardAlpha" operator="out"/>
<feColorMatrix type="matrix" values="0 0 0 0 0 0 0 0 0 0 0 0 0 0 0 0 0 0 0.25 0"/>
<feBlend mode="normal" in2="BackgroundImageFix" result="effect1_dropShadow_1_21"/>
<feBlend mode="normal" in="SourceGraphic" in2="effect1_dropShadow_1_21" result="shape"/>
</filter>
<filter id="filter7_d_1_21" x="241.201" y="52.0609" width="64.0041" height="64.5342" filterUnits="userSpaceOnUse" color-interpolation-filters="sRGB">
<feFlood flood-opacity="0" result="BackgroundImageFix"/>
<feColorMatrix in="SourceAlpha" type="matrix" values="0 0 0 0 0 0 0 0 0 0 0 0 0 0 0 0 0 0 127 0" result="hardAlpha"/>
<feOffset dy="4"/>
<feGaussianBlur stdDeviation="2"/>
<feComposite in2="hardAlpha" operator="out"/>
<feColorMatrix type="matrix" values="0 0 0 0 0 0 0 0 0 0 0 0 0 0 0 0 0 0 0.25 0"/>
<feBlend mode="normal" in2="BackgroundImageFix" result="effect1_dropShadow_1_21"/>
<feBlend mode="normal" in="SourceGraphic" in2="effect1_dropShadow_1_21" result="shape"/>
</filter>
<clipPath id="clip0_1_21">
<rect width="314" height="214" fill="white" transform="translate(0 9)"/>
</clipPath>
</defs>
</svg>
