<svg xmlns="http://www.w3.org/2000/svg" xmlns:xlink="http://www.w3.org/1999/xlink" xmlns:lucid="lucid" width="3440" height="1229"><g transform="translate(-178 568)" lucid:page-tab-id="0_0"><path d="M207.36-540h3385.28v117.5H207.36z" fill="#6f7681"/><path d="M207.36-422.5h364v117.48h-364z" fill="#fff"/><path d="M571.36-422.5h274.66v117.48H571.36z" fill="#6db1ff"/><path d="M846.02-422.5h274.66v117.48H846.02zM1120.68-422.5h274.66v117.48h-274.66zM1395.35-422.5H1670v117.48h-274.65zM1670-422.5h274.67v117.48H1670z" fill="#fff"/><path d="M1944.67-422.5h274.66v117.48h-274.66zM2219.33-422.5H2494v117.48h-274.67zM2494-422.5h274.66v117.48H2494zM2768.66-422.5h274.66v117.48h-274.66zM3043.32-422.5h274.66v117.48h-274.66zM3317.98-422.5h274.66v117.48h-274.66z" fill="#fff"/><path d="M207.36-305.02h364v117.5h-364zM571.36-305.02h274.66v117.5H571.36z" fill="#f2f3f5"/><path d="M846.02-305.02h274.66v117.5H846.02z" fill="#6db1ff"/><path d="M1120.68-305.02h274.66v117.5h-274.66zM1395.35-305.02H1670v117.5h-274.65zM1670-305.02h274.67v117.5H1670z" fill="#f2f3f5"/><path d="M1944.67-305.02h274.66v117.5h-274.66zM2219.33-305.02H2494v117.5h-274.67zM2494-305.02h274.66v117.5H2494zM2768.66-305.02h274.66v117.5h-274.66zM3043.32-305.02h274.66v117.5h-274.66zM3317.98-305.02h274.66v117.5h-274.66z" fill="#f2f3f5"/><path d="M207.36-187.53h364v117.48h-364zM571.36-187.53h274.66v117.48H571.36zM846.02-187.53h274.66v117.48H846.02z" fill="#fff"/><path d="M1120.68-187.53h274.66v117.48h-274.66z" fill="#6db1ff"/><path d="M1395.35-187.53H1670v117.48h-274.65zM1670-187.53h274.67v117.48H1670z" fill="#fff"/><path d="M1944.67-187.53h274.66v117.48h-274.66zM2219.33-187.53H2494v117.48h-274.67zM2494-187.53h274.66v117.48H2494zM2768.66-187.53h274.66v117.48h-274.66zM3043.32-187.53h274.66v117.48h-274.66zM3317.98-187.53h274.66v117.48h-274.66z" fill="#fff"/><path d="M207.36-70.05h364v117.5h-364zM571.36-70.05h274.66v117.5H571.36zM846.02-70.05h274.66v117.5H846.02zM1120.68-70.05h274.66v117.5h-274.66z" fill="#f2f3f5"/><path d="M1395.35-70.05h549.32v117.5h-549.33z" fill="#00c2a8"/><path d="M1944.67-70.05h274.66v117.5h-274.66zM2219.33-70.05H2494v117.5h-274.67zM2494-70.05h274.66v117.5H2494zM2768.66-70.05h274.66v117.5h-274.66zM3043.32-70.05h274.66v117.5h-274.66zM3317.98-70.05h274.66v117.5h-274.66z" fill="#f2f3f5"/><path d="M207.36 47.44h364v117.5h-364zM571.36 47.44h274.66v117.5H571.36zM846.02 47.44h274.66v117.5H846.02zM1120.68 47.44h274.66v117.5h-274.66zM1395.35 47.44H1670v117.5h-274.65zM1670 47.44h274.67v117.5H1670z" fill="#fff"/><path d="M1944.67 47.44h274.66v117.5h-274.66z" fill="#00c2a8"/><path d="M2219.33 47.44H2494v117.5h-274.67zM2494 47.44h274.66v117.5H2494zM2768.66 47.44h274.66v117.5h-274.66zM3043.32 47.44h274.66v117.5h-274.66zM3317.98 47.44h274.66v117.5h-274.66z" fill="#fff"/><path d="M207.36 164.93h364v117.5h-364zM571.36 164.93h274.66v117.5H571.36zM846.02 164.93h274.66v117.5H846.02zM1120.68 164.93h274.66v117.5h-274.66zM1395.35 164.93H1670v117.5h-274.65zM1670 164.93h274.67v117.5H1670z" fill="#f2f3f5"/><path d="M1944.67 164.93h274.66v117.5h-274.66z" fill="#f2f3f5"/><path d="M2219.33 164.93H2494v117.5h-274.67z" fill="#00c2a8"/><path d="M2494 164.93h274.66v117.5H2494zM2768.66 164.93h274.66v117.5h-274.66zM3043.32 164.93h274.66v117.5h-274.66zM3317.98 164.93h274.66v117.5h-274.66z" fill="#f2f3f5"/><path d="M207.36 282.42h364v117.5h-364zM571.36 282.42h274.66v117.5H571.36zM846.02 282.42h274.66v117.5H846.02zM1120.68 282.42h274.66v117.5h-274.66zM1395.35 282.42H1670v117.5h-274.65zM1670 282.42h274.67v117.5H1670z" fill="#fff"/><path d="M1944.67 282.42h274.66v117.5h-274.66zM2219.33 282.42H2494v117.5h-274.67z" fill="#fff"/><path d="M2494 282.42h274.66v117.5H2494z" fill="#00c2a8"/><path d="M2768.66 282.42h274.66v117.5h-274.66zM3043.32 282.42h274.66v117.5h-274.66zM3317.98 282.42h274.66v117.5h-274.66z" fill="#fff"/><path d="M207.36 399.9h364v117.5h-364zM571.36 399.9h274.66v117.5H571.36zM846.02 399.9h274.66v117.5H846.02zM1120.68 399.9h274.66v117.5h-274.66zM1395.35 399.9H1670v117.5h-274.65zM1670 399.9h274.67v117.5H1670z" fill="#f2f3f5"/><path d="M1944.67 399.9h274.66v117.5h-274.66zM2219.33 399.9H2494v117.5h-274.67zM2494 399.9h274.66v117.5H2494z" fill="#f2f3f5"/><path d="M2768.66 399.9h549.32v117.5h-549.32z" fill="#00c2a8"/><path d="M3317.98 399.9h274.66v117.5h-274.66z" fill="#f2f3f5"/><path d="M207.36 517.4h364v117.5h-364zM571.36 517.4h274.66v117.5H571.36zM846.02 517.4h274.66v117.5H846.02zM1120.68 517.4h274.66v117.5h-274.66zM1395.35 517.4H1670v117.5h-274.65zM1670 517.4h274.67v117.5H1670z" fill="#fff"/><path d="M1944.67 517.4h274.66v117.5h-274.66zM2219.33 517.4H2494v117.5h-274.67zM2494 517.4h274.66v117.5H2494zM2768.66 517.4h274.66v117.5h-274.66zM3043.32 517.4h274.66v117.5h-274.66z" fill="#fff"/><path d="M3317.98 517.4h274.66v117.5h-274.66z" fill="#fe7070"/><path d="M207.36-540v117.5M3592.64-540v117.5M207.36-422.5v117.48M571.36-422.5v117.48M846.02-422.5v117.48M1120.68-422.5v117.48M1395.35-422.5v117.48M1670-422.5v117.48M1944.67-422.5v117.48M2219.33-422.5v117.48M2494-422.5v117.48M2768.66-422.5v117.48M3043.32-422.5v117.48M3317.98-422.5v117.48M3592.64-422.5v117.48M207.36-305.02v117.5M571.36-305.02v117.5M846.02-305.02v117.5M1120.68-305.02v117.5M1395.35-305.02v117.5M1670-305.02v117.5M1944.67-305.02v117.5M2219.33-305.02v117.5M2494-305.02v117.5M2768.66-305.02v117.5M3043.32-305.02v117.5M3317.98-305.02v117.5M3592.64-305.02v117.5M207.36-187.53v117.48M571.36-187.53v117.48M846.02-187.53v117.48M1120.68-187.53v117.48M1395.35-187.53v117.48M1670-187.53v117.48M1944.67-187.53v117.48M2219.33-187.53v117.48M2494-187.53v117.48M2768.66-187.53v117.48M3043.32-187.53v117.48M3317.98-187.53v117.48M3592.64-187.53v117.48M207.36-70.05v117.5M571.36-70.05v117.5M846.02-70.05v117.5M1120.68-70.05v117.5M1395.35-70.05v117.5M1944.67-70.05v117.5M2219.33-70.05v117.5M2494-70.05v117.5M2768.66-70.05v117.5M3043.32-70.05v117.5M3317.98-70.05v117.5M3592.64-70.05v117.5M207.36 47.44v117.5M571.36 47.44v117.5M846.02 47.44v117.5M1120.68 47.44v117.5M1395.35 47.44v117.5M1670 47.44v117.5M1944.67 47.44v117.5M2219.33 47.44v117.5M2494 47.44v117.5M2768.66 47.44v117.5M3043.32 47.44v117.5M3317.98 47.44v117.5M3592.64 47.44v117.5M207.36 164.93v117.5M571.36 164.93v117.5M846.02 164.93v117.5M1120.68 164.93v117.5M1395.35 164.93v117.5M1670 164.93v117.5M1944.67 164.93v117.5M2219.33 164.93v117.5M2494 164.93v117.5M2768.66 164.93v117.5M3043.32 164.93v117.5M3317.98 164.93v117.5M3592.64 164.93v117.5M207.36 282.42v117.5M571.36 282.42v117.5M846.02 282.42v117.5M1120.68 282.42v117.5M1395.35 282.42v117.5M1670 282.42v117.5M1944.67 282.42v117.5M2219.33 282.42v117.5M2494 282.42v117.5M2768.66 282.42v117.5M3043.32 282.42v117.5M3317.98 282.42v117.5M3592.64 282.42v117.5M207.36 399.9v117.5M571.36 399.9v117.5M846.02 399.9v117.5M1120.68 399.9v117.5M1395.35 399.9v117.5M1670 399.9v117.5M1944.67 399.9v117.5M2219.33 399.9v117.5M2494 399.9v117.5M2768.66 399.9v117.5M3317.98 399.9v117.5M3592.64 399.9v117.5M207.36 517.4v117.5M571.36 517.4v117.5M846.02 517.4v117.5M1120.68 517.4v117.5M1395.35 517.4v117.5M1670 517.4v117.5M1944.67 517.4v117.5M2219.33 517.4v117.5M2494 517.4v117.5M2768.66 517.4v117.5M3043.32 517.4v117.5M3317.98 517.4v117.5M3592.64 517.4v117.5M207.36-540h3385.28M207.36-422.5h364M571.36-422.5h274.66M846.02-422.5h274.66M1120.68-422.5h274.66M1395.35-422.5H1670M1670-422.5h274.67M1944.67-422.5h274.66M2219.33-422.5H2494M2494-422.5h274.66M2768.66-422.5h274.66M3043.32-422.5h274.66M3317.98-422.5h274.66M207.36-305.02h364M571.36-305.02h274.66M846.02-305.02h274.66M1120.68-305.02h274.66M1395.35-305.02H1670M1670-305.02h274.67M1944.67-305.02h274.66M2219.33-305.02H2494M2494-305.02h274.66M2768.66-305.02h274.66M3043.32-305.02h274.66M3317.98-305.02h274.66M207.36-187.53h364M571.36-187.53h274.66M846.02-187.53h274.66M1120.68-187.53h274.66M1395.35-187.53H1670M1670-187.53h274.67M1944.67-187.53h274.66M2219.33-187.53H2494M2494-187.53h274.66M2768.66-187.53h274.66M3043.32-187.53h274.66M3317.98-187.53h274.66M207.36-70.05h364M571.36-70.05h274.66M846.02-70.05h274.66M1120.68-70.05h274.66M1395.35-70.05h549.32M1944.67-70.05h274.66M2219.33-70.05H2494M2494-70.05h274.66M2768.66-70.05h274.66M3043.32-70.05h274.66M3317.98-70.05h274.66M207.36 47.44h364M571.36 47.44h274.66M846.02 47.44h274.66M1120.68 47.44h274.66M1395.35 47.44H1670M1670 47.44h274.67M1944.67 47.44h274.66M2219.33 47.44H2494M2494 47.44h274.66M2768.66 47.44h274.66M3043.32 47.44h274.66M3317.98 47.44h274.66M207.36 164.93h364M571.36 164.93h274.66M846.02 164.93h274.66M1120.68 164.93h274.66M1395.35 164.93H1670M1670 164.93h274.67M1944.67 164.93h274.66M2219.33 164.93H2494M2494 164.93h274.66M2768.66 164.93h274.66M3043.32 164.93h274.66M3317.98 164.93h274.66M207.36 282.42h364M571.36 282.42h274.66M846.02 282.42h274.66M1120.68 282.42h274.66M1395.35 282.42H1670M1670 282.42h274.67M1944.67 282.42h274.66M2219.33 282.42H2494M2494 282.42h274.66M2768.66 282.42h274.66M3043.32 282.42h274.66M3317.98 282.42h274.66M207.36 399.9h364M571.36 399.9h274.66M846.02 399.9h274.66M1120.68 399.9h274.66M1395.35 399.9H1670M1670 399.9h274.67M1944.67 399.9h274.66M2219.33 399.9H2494M2494 399.9h274.66M2768.66 399.9h549.32M3317.98 399.9h274.66M207.36 517.4h364M207.36 634.9h364M571.36 517.4h274.66M571.36 634.9h274.66M846.02 517.4h274.66M846.02 634.9h274.66M1120.68 517.4h274.66M1120.68 634.9h274.66M1395.35 517.4H1670M1395.35 634.9H1670M1670 517.4h274.67M1670 634.9h274.67M1944.67 517.4h274.66M1944.67 634.9h274.66M2219.33 517.4H2494M2219.33 634.9H2494M2494 517.4h274.66M2494 634.9h274.66M2768.66 517.4h274.66M2768.66 634.9h274.66M3043.32 517.4h274.66M3043.32 634.9h274.66M3317.98 517.4h274.66M3317.98 634.9h274.66" stroke="#000" fill="none"/><use xlink:href="#a" transform="matrix(1,0,0,1,212.35991649905827,-535) translate(1589.4197530864199 62.888888888888886)"/><use xlink:href="#b" transform="matrix(1,0,0,1,212.35991649905827,-417.5112652421602) translate(91.87654320987654 58.44444444444444)"/><use xlink:href="#c" transform="matrix(1,0,0,1,212.35991649905827,-417.5112652421602) translate(164.5925925925926 58.44444444444444)"/><use xlink:href="#d" transform="matrix(1,0,0,1,212.35991649905827,-300.0225304843204) translate(49.99382716049382 58.44444444444444)"/><use xlink:href="#e" transform="matrix(1,0,0,1,212.35991649905827,-300.0225304843204) translate(159.68518518518516 58.44444444444444)"/><use xlink:href="#b" transform="matrix(1,0,0,1,212.35991649905827,-182.53379572648055) translate(85.73456790123456 58.44444444444444)"/><use xlink:href="#f" transform="matrix(1,0,0,1,212.35991649905827,-182.53379572648055) translate(158.4506172839506 58.44444444444444)"/><use xlink:href="#g" transform="matrix(1,0,0,1,212.35991649905827,-182.53379572648055) translate(200.42592592592592 58.44444444444444)"/><use xlink:href="#d" transform="matrix(1,0,0,1,212.35991649905827,-65.04506096864077) translate(43.234567901234556 58.44444444444444)"/><use xlink:href="#h" transform="matrix(1,0,0,1,212.35991649905827,-65.04506096864077) translate(152.92592592592592 58.44444444444444)"/><use xlink:href="#i" transform="matrix(1,0,0,1,212.35991649905827,-65.04506096864077) translate(236.7530864197531 58.44444444444444)"/><use xlink:href="#j" transform="matrix(1,0,0,1,212.35991649905827,52.44367378919901) translate(15.425925925925924 31.77777777777778)"/><use xlink:href="#k" transform="matrix(1,0,0,1,212.35991649905827,52.44367378919901) translate(74.5 31.77777777777778)"/><use xlink:href="#l" transform="matrix(1,0,0,1,212.35991649905827,52.44367378919901) translate(123.82098765432099 31.77777777777778)"/><use xlink:href="#m" transform="matrix(1,0,0,1,212.35991649905827,52.44367378919901) translate(148.51234567901236 31.77777777777778)"/><use xlink:href="#n" transform="matrix(1,0,0,1,212.35991649905827,52.44367378919901) translate(222.5246913580247 31.77777777777778)"/><use xlink:href="#o" transform="matrix(1,0,0,1,212.35991649905827,52.44367378919901) translate(301.53703703703707 31.77777777777778)"/><use xlink:href="#p" transform="matrix(1,0,0,1,212.35991649905827,52.44367378919901) translate(19.12962962962962 58.44444444444445)"/><use xlink:href="#q" transform="matrix(1,0,0,1,212.35991649905827,52.44367378919901) translate(85.73456790123456 58.44444444444445)"/><use xlink:href="#r" transform="matrix(1,0,0,1,212.35991649905827,52.44367378919901) translate(151.1049382716049 58.44444444444445)"/><use xlink:href="#s" transform="matrix(1,0,0,1,212.35991649905827,52.44367378919901) translate(194.31481481481478 58.44444444444445)"/><use xlink:href="#t" transform="matrix(1,0,0,1,212.35991649905827,52.44367378919901) translate(253.51234567901233 58.44444444444445)"/><use xlink:href="#u" transform="matrix(1,0,0,1,212.35991649905827,52.44367378919901) translate(304.0061728395062 58.44444444444445)"/><use xlink:href="#v" transform="matrix(1,0,0,1,212.35991649905827,52.44367378919901) translate(130.11728395061726 85.11111111111111)"/><use xlink:href="#w" transform="matrix(1,0,0,1,212.35991649905827,52.44367378919901) translate(180.6728395061728 85.11111111111111)"/><g><use xlink:href="#j" transform="matrix(1,0,0,1,212.35991649905827,169.9324085470389) translate(11.81481481481481 45.111111111111114)"/><use xlink:href="#k" transform="matrix(1,0,0,1,212.35991649905827,169.9324085470389) translate(70.88888888888889 45.111111111111114)"/><use xlink:href="#l" transform="matrix(1,0,0,1,212.35991649905827,169.9324085470389) translate(120.20987654320987 45.111111111111114)"/><use xlink:href="#x" transform="matrix(1,0,0,1,212.35991649905827,169.9324085470389) translate(144.90123456790124 45.111111111111114)"/><use xlink:href="#y" transform="matrix(1,0,0,1,212.35991649905827,169.9324085470389) translate(199.1604938271605 45.111111111111114)"/><use xlink:href="#t" transform="matrix(1,0,0,1,212.35991649905827,169.9324085470389) translate(260.82716049382714 45.111111111111114)"/><use xlink:href="#u" transform="matrix(1,0,0,1,212.35991649905827,169.9324085470389) translate(311.320987654321 45.111111111111114)"/><use xlink:href="#v" transform="matrix(1,0,0,1,212.35991649905827,169.9324085470389) translate(130.11728395061726 71.77777777777777)"/><use xlink:href="#w" transform="matrix(1,0,0,1,212.35991649905827,169.9324085470389) translate(180.6728395061728 71.77777777777777)"/></g><g><use xlink:href="#j" transform="matrix(1,0,0,1,212.35991649905827,287.4211433048787) translate(15.425925925925924 45.111111111111114)"/><use xlink:href="#k" transform="matrix(1,0,0,1,212.35991649905827,287.4211433048787) translate(74.5 45.111111111111114)"/><use xlink:href="#l" transform="matrix(1,0,0,1,212.35991649905827,287.4211433048787) translate(123.82098765432099 45.111111111111114)"/><use xlink:href="#m" transform="matrix(1,0,0,1,212.35991649905827,287.4211433048787) translate(148.51234567901236 45.111111111111114)"/><use xlink:href="#n" transform="matrix(1,0,0,1,212.35991649905827,287.4211433048787) translate(222.5246913580247 45.111111111111114)"/><use xlink:href="#o" transform="matrix(1,0,0,1,212.35991649905827,287.4211433048787) translate(301.53703703703707 45.111111111111114)"/><use xlink:href="#p" transform="matrix(1,0,0,1,212.35991649905827,287.4211433048787) translate(0.7037037037037237 71.77777777777777)"/><use xlink:href="#z" transform="matrix(1,0,0,1,212.35991649905827,287.4211433048787) translate(67.30864197530866 71.77777777777777)"/><use xlink:href="#t" transform="matrix(1,0,0,1,212.35991649905827,287.4211433048787) translate(172.00000000000003 71.77777777777777)"/><use xlink:href="#A" transform="matrix(1,0,0,1,212.35991649905827,287.4211433048787) translate(222.49382716049385 71.77777777777777)"/><use xlink:href="#v" transform="matrix(1,0,0,1,212.35991649905827,287.4211433048787) translate(259.53086419753083 71.77777777777777)"/><use xlink:href="#w" transform="matrix(1,0,0,1,212.35991649905827,287.4211433048787) translate(310.0864197530864 71.77777777777777)"/></g><g><use xlink:href="#d" transform="matrix(1,0,0,1,212.35991649905827,404.90987806271846) translate(56.19753086419753 58.44444444444444)"/><use xlink:href="#B" transform="matrix(1,0,0,1,212.35991649905827,404.90987806271846) translate(165.88888888888889 58.44444444444444)"/><use xlink:href="#C" transform="matrix(1,0,0,1,212.35991649905827,404.90987806271846) translate(237.4320987654321 58.44444444444444)"/><use xlink:href="#D" transform="matrix(1,0,0,1,212.35991649905827,404.90987806271846) translate(269.4691358024691 58.44444444444444)"/></g><g><use xlink:href="#E" transform="matrix(1,0,0,1,212.35991649905827,522.3986128205584) translate(85.73456790123457 58.44444444444444)"/><use xlink:href="#F" transform="matrix(1,0,0,1,212.35991649905827,522.3986128205584) translate(196.72222222222223 58.44444444444444)"/></g><path d="M2760-374a6 6 0 0 1 6-6h548a6 6 0 0 1 6 6V14a6 6 0 0 1-6 6h-548a6 6 0 0 1-6-6z" stroke="#3a414a" fill="#fff"/><path d="M2860-334a6 6 0 0 1 6-6h88a6 6 0 0 1 6 6v63a6 6 0 0 1-6 6h-88a6 6 0 0 1-6-6z" stroke="#3a414a" fill="#6db1ff"/><path d="M2860-94a6 6 0 0 1 6-6h88a6 6 0 0 1 6 6v63a6 6 0 0 1-6 6h-88a6 6 0 0 1-6-6z" stroke="#3a414a" fill="#fe7070"/><path d="M2860-214a6 6 0 0 1 6-6h88a6 6 0 0 1 6 6v63a6 6 0 0 1-6 6h-88a6 6 0 0 1-6-6z" stroke="#3a414a" fill="#00c2a8"/><path d="M3000-334a6 6 0 0 1 6-6h228a6 6 0 0 1 6 6v63a6 6 0 0 1-6 6h-228a6 6 0 0 1-6-6z" stroke="#000" stroke-opacity="0" fill-opacity="0"/><g><use xlink:href="#G" transform="matrix(1,0,0,1,3005,-335) translate(0 41.64930555555554)"/><use xlink:href="#H" transform="matrix(1,0,0,1,3005,-335) translate(111.11111111111107 41.64930555555554)"/></g><path d="M3000-214a6 6 0 0 1 6-6h228a6 6 0 0 1 6 6v63a6 6 0 0 1-6 6h-228a6 6 0 0 1-6-6z" stroke="#000" stroke-opacity="0" fill-opacity="0"/><g><use xlink:href="#I" transform="matrix(1,0,0,1,3005,-215) translate(0 41.64930555555554)"/><use xlink:href="#H" transform="matrix(1,0,0,1,3005,-215) translate(115.8024691358024 41.64930555555554)"/></g><path d="M3000-94a6 6 0 0 1 6-6h228a6 6 0 0 1 6 6v63a6 6 0 0 1-6 6h-228a6 6 0 0 1-6-6z" stroke="#000" stroke-opacity="0" fill-opacity="0"/><g><use xlink:href="#J" transform="matrix(1,0,0,1,3005,-95) translate(0 41.64930555555554)"/></g><defs><path fill="#fff" d="M169-182c-1-43-94-46-97-3 18 66 151 10 154 114 3 95-165 93-204 36-6-8-10-19-12-30l50-8c3 46 112 56 116 5-17-69-150-10-154-114-4-87 153-88 188-35 5 8 8 18 10 28" id="K"/><path fill="#fff" d="M190-63c-7 42-38 67-86 67-59 0-84-38-90-98-12-110 154-137 174-36l-49 2c-2-19-15-32-35-32-30 0-35 28-38 64-6 74 65 87 74 30" id="L"/><path fill="#fff" d="M114-157C55-157 80-60 75 0H25v-261h50l-1 109c12-26 28-41 61-42 86-1 58 113 63 194h-50c-7-57 23-157-34-157" id="M"/><path fill="#fff" d="M185-48c-13 30-37 53-82 52C43 2 14-33 14-96s30-98 90-98c62 0 83 45 84 108H66c0 31 8 55 39 56 18 0 30-7 34-22zm-45-69c5-46-57-63-70-21-2 6-4 13-4 21h74" id="N"/><path fill="#fff" d="M88-194c31-1 46 15 58 34l-1-101h50l1 261h-48c-2-10 0-23-3-31C134-8 116 4 84 4 32 4 16-41 15-95c0-56 19-97 73-99zm17 164c33 0 40-30 41-66 1-37-9-64-41-64s-38 30-39 65c0 43 13 65 39 65" id="O"/><path fill="#fff" d="M85 4C-2 5 27-109 22-190h50c7 57-23 150 33 157 60-5 35-97 40-157h50l1 190h-47c-2-12 1-28-3-38-12 25-28 42-61 42" id="P"/><path fill="#fff" d="M25 0v-261h50V0H25" id="Q"/><g id="a"><use transform="matrix(0.12345679012345674,0,0,0.12345679012345674,0,0)" xlink:href="#K"/><use transform="matrix(0.12345679012345674,0,0,0.12345679012345674,29.62962962962962,0)" xlink:href="#L"/><use transform="matrix(0.12345679012345674,0,0,0.12345679012345674,54.320987654320966,0)" xlink:href="#M"/><use transform="matrix(0.12345679012345674,0,0,0.12345679012345674,81.358024691358,0)" xlink:href="#N"/><use transform="matrix(0.12345679012345674,0,0,0.12345679012345674,106.04938271604934,0)" xlink:href="#O"/><use transform="matrix(0.12345679012345674,0,0,0.12345679012345674,133.08641975308637,0)" xlink:href="#P"/><use transform="matrix(0.12345679012345674,0,0,0.12345679012345674,160.1234567901234,0)" xlink:href="#Q"/><use transform="matrix(0.12345679012345674,0,0,0.12345679012345674,172.46913580246908,0)" xlink:href="#N"/></g><path d="M212-179c-10-28-35-45-73-45-59 0-87 40-87 99 0 60 29 101 89 101 43 0 62-24 78-52l27 14C228-24 195 4 139 4 59 4 22-46 18-125c-6-104 99-153 187-111 19 9 31 26 39 46" id="R"/><path d="M114-163C36-179 61-72 57 0H25l-1-190h30c1 12-1 29 2 39 6-27 23-49 58-41v29" id="S"/><path d="M100-194c63 0 86 42 84 106H49c0 40 14 67 53 68 26 1 43-12 49-29l28 8c-11 28-37 45-77 45C44 4 14-33 15-96c1-61 26-98 85-98zm52 81c6-60-76-77-97-28-3 7-6 17-6 28h103" id="T"/><path d="M141-36C126-15 110 5 73 4 37 3 15-17 15-53c-1-64 63-63 125-63 3-35-9-54-41-54-24 1-41 7-42 31l-33-3c5-37 33-52 76-52 45 0 72 20 72 64v82c-1 20 7 32 28 27v20c-31 9-61-2-59-35zM48-53c0 20 12 33 32 33 41-3 63-29 60-74-43 2-92-5-92 41" id="U"/><path d="M59-47c-2 24 18 29 38 22v24C64 9 27 4 27-40v-127H5v-23h24l9-43h21v43h35v23H59v120" id="V"/><g id="b"><use transform="matrix(0.06172839506172839,0,0,0.06172839506172839,0,0)" xlink:href="#R"/><use transform="matrix(0.06172839506172839,0,0,0.06172839506172839,15.987654320987653,0)" xlink:href="#S"/><use transform="matrix(0.06172839506172839,0,0,0.06172839506172839,23.333333333333332,0)" xlink:href="#T"/><use transform="matrix(0.06172839506172839,0,0,0.06172839506172839,35.67901234567901,0)" xlink:href="#U"/><use transform="matrix(0.06172839506172839,0,0,0.06172839506172839,48.02469135802469,0)" xlink:href="#V"/><use transform="matrix(0.06172839506172839,0,0,0.06172839506172839,54.19753086419753,0)" xlink:href="#T"/></g><path d="M85-194c31 0 48 13 60 33l-1-100h32l1 261h-30c-2-10 0-23-3-31C134-8 116 4 85 4 32 4 16-35 15-94c0-66 23-100 70-100zm9 24c-40 0-46 34-46 75 0 40 6 74 45 74 42 0 51-32 51-76 0-42-9-74-50-73" id="W"/><path d="M115-194c53 0 69 39 70 98 0 66-23 100-70 100C84 3 66-7 56-30L54 0H23l1-261h32v101c10-23 28-34 59-34zm-8 174c40 0 45-34 45-75 0-40-5-75-45-74-42 0-51 32-51 76 0 43 10 73 51 73" id="X"/><path d="M135-143c-3-34-86-38-87 0 15 53 115 12 119 90S17 21 10-45l28-5c4 36 97 45 98 0-10-56-113-15-118-90-4-57 82-63 122-42 12 7 21 19 24 35" id="Y"/><path d="M33 0v-38h34V0H33" id="Z"/><g id="c"><use transform="matrix(0.06172839506172839,0,0,0.06172839506172839,0,0)" xlink:href="#W"/><use transform="matrix(0.06172839506172839,0,0,0.06172839506172839,12.345679012345679,0)" xlink:href="#U"/><use transform="matrix(0.06172839506172839,0,0,0.06172839506172839,24.691358024691358,0)" xlink:href="#V"/><use transform="matrix(0.06172839506172839,0,0,0.06172839506172839,30.864197530864196,0)" xlink:href="#U"/><use transform="matrix(0.06172839506172839,0,0,0.06172839506172839,43.20987654320987,0)" xlink:href="#X"/><use transform="matrix(0.06172839506172839,0,0,0.06172839506172839,55.55555555555555,0)" xlink:href="#U"/><use transform="matrix(0.06172839506172839,0,0,0.06172839506172839,67.90123456790123,0)" xlink:href="#Y"/><use transform="matrix(0.06172839506172839,0,0,0.06172839506172839,79.01234567901234,0)" xlink:href="#T"/><use transform="matrix(0.06172839506172839,0,0,0.06172839506172839,91.35802469135803,0)" xlink:href="#Z"/></g><path d="M33 0v-248h34V0H33" id="aa"/><path d="M210-169c-67 3-38 105-44 169h-31v-121c0-29-5-50-35-48C34-165 62-65 56 0H25l-1-190h30c1 10-1 24 2 32 10-44 99-50 107 0 11-21 27-35 58-36 85-2 47 119 55 194h-31v-121c0-29-5-49-35-48" id="ab"/><path d="M115-194c55 1 70 41 70 98S169 2 115 4C84 4 66-9 55-30l1 105H24l-1-265h31l2 30c10-21 28-34 59-34zm-8 174c40 0 45-34 45-75s-6-73-45-74c-42 0-51 32-51 76 0 43 10 73 51 73" id="ac"/><path d="M24 0v-261h32V0H24" id="ad"/><path d="M117-194c89-4 53 116 60 194h-32v-121c0-31-8-49-39-48C34-167 62-67 57 0H25l-1-190h30c1 10-1 24 2 32 11-22 29-35 61-36" id="ae"/><g id="d"><use transform="matrix(0.06172839506172839,0,0,0.06172839506172839,0,0)" xlink:href="#aa"/><use transform="matrix(0.06172839506172839,0,0,0.06172839506172839,6.172839506172839,0)" xlink:href="#ab"/><use transform="matrix(0.06172839506172839,0,0,0.06172839506172839,24.629629629629626,0)" xlink:href="#ac"/><use transform="matrix(0.06172839506172839,0,0,0.06172839506172839,36.9753086419753,0)" xlink:href="#ad"/><use transform="matrix(0.06172839506172839,0,0,0.06172839506172839,41.85185185185185,0)" xlink:href="#T"/><use transform="matrix(0.06172839506172839,0,0,0.06172839506172839,54.197530864197525,0)" xlink:href="#ab"/><use transform="matrix(0.06172839506172839,0,0,0.06172839506172839,72.65432098765432,0)" xlink:href="#T"/><use transform="matrix(0.06172839506172839,0,0,0.06172839506172839,85,0)" xlink:href="#ae"/><use transform="matrix(0.06172839506172839,0,0,0.06172839506172839,97.34567901234568,0)" xlink:href="#V"/></g><path d="M84 4C-5 8 30-112 23-190h32v120c0 31 7 50 39 49 72-2 45-101 50-169h31l1 190h-30c-1-10 1-25-2-33-11 22-28 36-60 37" id="af"/><path d="M106-169C34-169 62-67 57 0H25v-261h32l-1 103c12-21 28-36 61-36 89 0 53 116 60 194h-32v-121c2-32-8-49-39-48" id="ag"/><path d="M24-231v-30h32v30H24zM24 0v-190h32V0H24" id="ah"/><path d="M96-169c-40 0-48 33-48 73s9 75 48 75c24 0 41-14 43-38l32 2c-6 37-31 61-74 61-59 0-76-41-82-99-10-93 101-131 147-64 4 7 5 14 7 22l-32 3c-4-21-16-35-41-35" id="ai"/><path d="M100-194c62-1 85 37 85 99 1 63-27 99-86 99S16-35 15-95c0-66 28-99 85-99zM99-20c44 1 53-31 53-75 0-43-8-75-51-75s-53 32-53 75 10 74 51 75" id="aj"/><g id="e"><use transform="matrix(0.06172839506172839,0,0,0.06172839506172839,0,0)" xlink:href="#U"/><use transform="matrix(0.06172839506172839,0,0,0.06172839506172839,12.345679012345679,0)" xlink:href="#af"/><use transform="matrix(0.06172839506172839,0,0,0.06172839506172839,24.691358024691358,0)" xlink:href="#V"/><use transform="matrix(0.06172839506172839,0,0,0.06172839506172839,30.864197530864196,0)" xlink:href="#ag"/><use transform="matrix(0.06172839506172839,0,0,0.06172839506172839,43.20987654320987,0)" xlink:href="#T"/><use transform="matrix(0.06172839506172839,0,0,0.06172839506172839,55.55555555555555,0)" xlink:href="#ae"/><use transform="matrix(0.06172839506172839,0,0,0.06172839506172839,67.90123456790123,0)" xlink:href="#V"/><use transform="matrix(0.06172839506172839,0,0,0.06172839506172839,74.07407407407406,0)" xlink:href="#ah"/><use transform="matrix(0.06172839506172839,0,0,0.06172839506172839,78.9506172839506,0)" xlink:href="#ai"/><use transform="matrix(0.06172839506172839,0,0,0.06172839506172839,90.06172839506172,0)" xlink:href="#U"/><use transform="matrix(0.06172839506172839,0,0,0.06172839506172839,102.4074074074074,0)" xlink:href="#V"/><use transform="matrix(0.06172839506172839,0,0,0.06172839506172839,108.58024691358024,0)" xlink:href="#ah"/><use transform="matrix(0.06172839506172839,0,0,0.06172839506172839,113.45679012345678,0)" xlink:href="#aj"/><use transform="matrix(0.06172839506172839,0,0,0.06172839506172839,125.80246913580247,0)" xlink:href="#ae"/><use transform="matrix(0.06172839506172839,0,0,0.06172839506172839,138.14814814814815,0)" xlink:href="#Z"/></g><path d="M205 0l-28-72H64L36 0H1l101-248h38L239 0h-34zm-38-99l-47-123c-12 45-31 82-46 123h93" id="ak"/><path d="M30-248c87 1 191-15 191 75 0 78-77 80-158 76V0H30v-248zm33 125c57 0 124 11 124-50 0-59-68-47-124-48v98" id="al"/><g id="f"><use transform="matrix(0.06172839506172839,0,0,0.06172839506172839,0,0)" xlink:href="#ak"/><use transform="matrix(0.06172839506172839,0,0,0.06172839506172839,14.814814814814813,0)" xlink:href="#al"/><use transform="matrix(0.06172839506172839,0,0,0.06172839506172839,29.629629629629626,0)" xlink:href="#aa"/></g><g id="g"><use transform="matrix(0.06172839506172839,0,0,0.06172839506172839,0,0)" xlink:href="#S"/><use transform="matrix(0.06172839506172839,0,0,0.06172839506172839,7.345679012345679,0)" xlink:href="#aj"/><use transform="matrix(0.06172839506172839,0,0,0.06172839506172839,19.691358024691358,0)" xlink:href="#af"/><use transform="matrix(0.06172839506172839,0,0,0.06172839506172839,32.03703703703704,0)" xlink:href="#V"/><use transform="matrix(0.06172839506172839,0,0,0.06172839506172839,38.20987654320988,0)" xlink:href="#T"/><use transform="matrix(0.06172839506172839,0,0,0.06172839506172839,50.55555555555556,0)" xlink:href="#Y"/><use transform="matrix(0.06172839506172839,0,0,0.06172839506172839,61.66666666666667,0)" xlink:href="#Z"/></g><path d="M143 0L79-87 56-68V0H24v-261h32v163l83-92h37l-77 82L181 0h-38" id="am"/><path d="M177-190C167-65 218 103 67 71c-23-6-38-20-44-43l32-5c15 47 100 32 89-28v-30C133-14 115 1 83 1 29 1 15-40 15-95c0-56 16-97 71-98 29-1 48 16 59 35 1-10 0-23 2-32h30zM94-22c36 0 50-32 50-73 0-42-14-75-50-75-39 0-46 34-46 75s6 73 46 73" id="an"/><g id="h"><use transform="matrix(0.06172839506172839,0,0,0.06172839506172839,0,0)" xlink:href="#V"/><use transform="matrix(0.06172839506172839,0,0,0.06172839506172839,6.172839506172839,0)" xlink:href="#S"/><use transform="matrix(0.06172839506172839,0,0,0.06172839506172839,13.518518518518519,0)" xlink:href="#U"/><use transform="matrix(0.06172839506172839,0,0,0.06172839506172839,25.864197530864196,0)" xlink:href="#ai"/><use transform="matrix(0.06172839506172839,0,0,0.06172839506172839,36.9753086419753,0)" xlink:href="#am"/><use transform="matrix(0.06172839506172839,0,0,0.06172839506172839,48.08641975308642,0)" xlink:href="#ah"/><use transform="matrix(0.06172839506172839,0,0,0.06172839506172839,52.96296296296296,0)" xlink:href="#ae"/><use transform="matrix(0.06172839506172839,0,0,0.06172839506172839,65.30864197530865,0)" xlink:href="#an"/></g><g id="i"><use transform="matrix(0.06172839506172839,0,0,0.06172839506172839,0,0)" xlink:href="#an"/><use transform="matrix(0.06172839506172839,0,0,0.06172839506172839,12.345679012345679,0)" xlink:href="#S"/><use transform="matrix(0.06172839506172839,0,0,0.06172839506172839,19.691358024691358,0)" xlink:href="#U"/><use transform="matrix(0.06172839506172839,0,0,0.06172839506172839,32.03703703703704,0)" xlink:href="#ac"/><use transform="matrix(0.06172839506172839,0,0,0.06172839506172839,44.382716049382715,0)" xlink:href="#ag"/><use transform="matrix(0.06172839506172839,0,0,0.06172839506172839,56.72839506172839,0)" xlink:href="#Y"/><use transform="matrix(0.06172839506172839,0,0,0.06172839506172839,67.8395061728395,0)" xlink:href="#Z"/></g><path d="M206 0h-36l-40-164L89 0H53L-1-190h32L70-26l43-164h34l41 164 42-164h31" id="ao"/><g id="j"><use transform="matrix(0.06172839506172839,0,0,0.06172839506172839,0,0)" xlink:href="#ak"/><use transform="matrix(0.06172839506172839,0,0,0.06172839506172839,14.814814814814813,0)" xlink:href="#ad"/><use transform="matrix(0.06172839506172839,0,0,0.06172839506172839,19.691358024691354,0)" xlink:href="#ad"/><use transform="matrix(0.06172839506172839,0,0,0.06172839506172839,24.5679012345679,0)" xlink:href="#aj"/><use transform="matrix(0.06172839506172839,0,0,0.06172839506172839,36.913580246913575,0)" xlink:href="#ao"/></g><g id="k"><use transform="matrix(0.06172839506172839,0,0,0.06172839506172839,0,0)" xlink:href="#af"/><use transform="matrix(0.06172839506172839,0,0,0.06172839506172839,12.345679012345679,0)" xlink:href="#Y"/><use transform="matrix(0.06172839506172839,0,0,0.06172839506172839,23.45679012345679,0)" xlink:href="#T"/><use transform="matrix(0.06172839506172839,0,0,0.06172839506172839,35.80246913580247,0)" xlink:href="#S"/></g><g id="l"><use transform="matrix(0.06172839506172839,0,0,0.06172839506172839,0,0)" xlink:href="#V"/><use transform="matrix(0.06172839506172839,0,0,0.06172839506172839,6.172839506172839,0)" xlink:href="#aj"/></g><path d="M68-38c1 34 0 65-14 84H32c9-13 17-26 17-46H33v-38h35" id="ap"/><g id="m"><use transform="matrix(0.06172839506172839,0,0,0.06172839506172839,0,0)" xlink:href="#ai"/><use transform="matrix(0.06172839506172839,0,0,0.06172839506172839,11.11111111111111,0)" xlink:href="#S"/><use transform="matrix(0.06172839506172839,0,0,0.06172839506172839,18.45679012345679,0)" xlink:href="#T"/><use transform="matrix(0.06172839506172839,0,0,0.06172839506172839,30.80246913580247,0)" xlink:href="#U"/><use transform="matrix(0.06172839506172839,0,0,0.06172839506172839,43.148148148148145,0)" xlink:href="#V"/><use transform="matrix(0.06172839506172839,0,0,0.06172839506172839,49.32098765432099,0)" xlink:href="#T"/><use transform="matrix(0.06172839506172839,0,0,0.06172839506172839,61.666666666666664,0)" xlink:href="#ap"/></g><g id="n"><use transform="matrix(0.06172839506172839,0,0,0.06172839506172839,0,0)" xlink:href="#ai"/><use transform="matrix(0.06172839506172839,0,0,0.06172839506172839,11.11111111111111,0)" xlink:href="#ag"/><use transform="matrix(0.06172839506172839,0,0,0.06172839506172839,23.45679012345679,0)" xlink:href="#U"/><use transform="matrix(0.06172839506172839,0,0,0.06172839506172839,35.80246913580247,0)" xlink:href="#ae"/><use transform="matrix(0.06172839506172839,0,0,0.06172839506172839,48.148148148148145,0)" xlink:href="#an"/><use transform="matrix(0.06172839506172839,0,0,0.06172839506172839,60.49382716049382,0)" xlink:href="#T"/></g><g id="o"><use transform="matrix(0.06172839506172839,0,0,0.06172839506172839,0,0)" xlink:href="#U"/><use transform="matrix(0.06172839506172839,0,0,0.06172839506172839,12.345679012345679,0)" xlink:href="#ae"/><use transform="matrix(0.06172839506172839,0,0,0.06172839506172839,24.691358024691358,0)" xlink:href="#W"/></g><g id="p"><use transform="matrix(0.06172839506172839,0,0,0.06172839506172839,0,0)" xlink:href="#W"/><use transform="matrix(0.06172839506172839,0,0,0.06172839506172839,12.345679012345679,0)" xlink:href="#T"/><use transform="matrix(0.06172839506172839,0,0,0.06172839506172839,24.691358024691358,0)" xlink:href="#ad"/><use transform="matrix(0.06172839506172839,0,0,0.06172839506172839,29.5679012345679,0)" xlink:href="#T"/><use transform="matrix(0.06172839506172839,0,0,0.06172839506172839,41.913580246913575,0)" xlink:href="#V"/><use transform="matrix(0.06172839506172839,0,0,0.06172839506172839,48.08641975308642,0)" xlink:href="#T"/></g><g id="q"><use transform="matrix(0.06172839506172839,0,0,0.06172839506172839,0,0)" xlink:href="#ag"/><use transform="matrix(0.06172839506172839,0,0,0.06172839506172839,12.345679012345679,0)" xlink:href="#U"/><use transform="matrix(0.06172839506172839,0,0,0.06172839506172839,24.691358024691358,0)" xlink:href="#X"/><use transform="matrix(0.06172839506172839,0,0,0.06172839506172839,37.03703703703704,0)" xlink:href="#ah"/><use transform="matrix(0.06172839506172839,0,0,0.06172839506172839,41.91358024691358,0)" xlink:href="#V"/><use transform="matrix(0.06172839506172839,0,0,0.06172839506172839,48.086419753086425,0)" xlink:href="#Y"/></g><g id="r"><use transform="matrix(0.06172839506172839,0,0,0.06172839506172839,0,0)" xlink:href="#U"/><use transform="matrix(0.06172839506172839,0,0,0.06172839506172839,12.345679012345679,0)" xlink:href="#ae"/><use transform="matrix(0.06172839506172839,0,0,0.06172839506172839,24.691358024691358,0)" xlink:href="#W"/></g><g id="s"><use transform="matrix(0.06172839506172839,0,0,0.06172839506172839,0,0)" xlink:href="#an"/><use transform="matrix(0.06172839506172839,0,0,0.06172839506172839,12.345679012345679,0)" xlink:href="#aj"/><use transform="matrix(0.06172839506172839,0,0,0.06172839506172839,24.691358024691358,0)" xlink:href="#U"/><use transform="matrix(0.06172839506172839,0,0,0.06172839506172839,37.03703703703704,0)" xlink:href="#ad"/><use transform="matrix(0.06172839506172839,0,0,0.06172839506172839,41.91358024691358,0)" xlink:href="#Y"/></g><path d="M101-234c-31-9-42 10-38 44h38v23H63V0H32v-167H5v-23h27c-7-52 17-82 69-68v24" id="aq"/><g id="t"><use transform="matrix(0.06172839506172839,0,0,0.06172839506172839,0,0)" xlink:href="#aq"/><use transform="matrix(0.06172839506172839,0,0,0.06172839506172839,6.172839506172839,0)" xlink:href="#S"/><use transform="matrix(0.06172839506172839,0,0,0.06172839506172839,13.518518518518519,0)" xlink:href="#aj"/><use transform="matrix(0.06172839506172839,0,0,0.06172839506172839,25.864197530864196,0)" xlink:href="#ab"/></g><g id="u"><use transform="matrix(0.06172839506172839,0,0,0.06172839506172839,0,0)" xlink:href="#V"/><use transform="matrix(0.06172839506172839,0,0,0.06172839506172839,6.172839506172839,0)" xlink:href="#ag"/><use transform="matrix(0.06172839506172839,0,0,0.06172839506172839,18.51851851851852,0)" xlink:href="#T"/></g><g id="v"><use transform="matrix(0.06172839506172839,0,0,0.06172839506172839,0,0)" xlink:href="#aq"/><use transform="matrix(0.06172839506172839,0,0,0.06172839506172839,6.172839506172839,0)" xlink:href="#S"/><use transform="matrix(0.06172839506172839,0,0,0.06172839506172839,13.518518518518519,0)" xlink:href="#aj"/><use transform="matrix(0.06172839506172839,0,0,0.06172839506172839,25.864197530864196,0)" xlink:href="#ae"/><use transform="matrix(0.06172839506172839,0,0,0.06172839506172839,38.20987654320987,0)" xlink:href="#V"/></g><g id="w"><use transform="matrix(0.06172839506172839,0,0,0.06172839506172839,0,0)" xlink:href="#T"/><use transform="matrix(0.06172839506172839,0,0,0.06172839506172839,12.345679012345679,0)" xlink:href="#ae"/><use transform="matrix(0.06172839506172839,0,0,0.06172839506172839,24.691358024691358,0)" xlink:href="#W"/><use transform="matrix(0.06172839506172839,0,0,0.06172839506172839,37.03703703703704,0)" xlink:href="#Z"/></g><g id="x"><use transform="matrix(0.06172839506172839,0,0,0.06172839506172839,0,0)" xlink:href="#ah"/><use transform="matrix(0.06172839506172839,0,0,0.06172839506172839,4.876543209876543,0)" xlink:href="#ae"/><use transform="matrix(0.06172839506172839,0,0,0.06172839506172839,17.22222222222222,0)" xlink:href="#ac"/><use transform="matrix(0.06172839506172839,0,0,0.06172839506172839,29.5679012345679,0)" xlink:href="#af"/><use transform="matrix(0.06172839506172839,0,0,0.06172839506172839,41.913580246913575,0)" xlink:href="#V"/></g><g id="y"><use transform="matrix(0.06172839506172839,0,0,0.06172839506172839,0,0)" xlink:href="#ab"/><use transform="matrix(0.06172839506172839,0,0,0.06172839506172839,18.456790123456788,0)" xlink:href="#aj"/><use transform="matrix(0.06172839506172839,0,0,0.06172839506172839,30.80246913580247,0)" xlink:href="#aj"/><use transform="matrix(0.06172839506172839,0,0,0.06172839506172839,43.148148148148145,0)" xlink:href="#W"/></g><g id="z"><use transform="matrix(0.06172839506172839,0,0,0.06172839506172839,0,0)" xlink:href="#S"/><use transform="matrix(0.06172839506172839,0,0,0.06172839506172839,7.345679012345679,0)" xlink:href="#T"/><use transform="matrix(0.06172839506172839,0,0,0.06172839506172839,19.691358024691358,0)" xlink:href="#ab"/><use transform="matrix(0.06172839506172839,0,0,0.06172839506172839,38.148148148148145,0)" xlink:href="#ah"/><use transform="matrix(0.06172839506172839,0,0,0.06172839506172839,43.02469135802469,0)" xlink:href="#ae"/><use transform="matrix(0.06172839506172839,0,0,0.06172839506172839,55.37037037037037,0)" xlink:href="#W"/><use transform="matrix(0.06172839506172839,0,0,0.06172839506172839,67.71604938271605,0)" xlink:href="#T"/><use transform="matrix(0.06172839506172839,0,0,0.06172839506172839,80.06172839506173,0)" xlink:href="#S"/><use transform="matrix(0.06172839506172839,0,0,0.06172839506172839,87.40740740740742,0)" xlink:href="#Y"/></g><g id="A"><use transform="matrix(0.06172839506172839,0,0,0.06172839506172839,0,0)" xlink:href="#V"/><use transform="matrix(0.06172839506172839,0,0,0.06172839506172839,6.172839506172839,0)" xlink:href="#ag"/><use transform="matrix(0.06172839506172839,0,0,0.06172839506172839,18.51851851851852,0)" xlink:href="#T"/></g><g id="B"><use transform="matrix(0.06172839506172839,0,0,0.06172839506172839,0,0)" xlink:href="#W"/><use transform="matrix(0.06172839506172839,0,0,0.06172839506172839,12.345679012345679,0)" xlink:href="#T"/><use transform="matrix(0.06172839506172839,0,0,0.06172839506172839,24.691358024691358,0)" xlink:href="#Y"/><use transform="matrix(0.06172839506172839,0,0,0.06172839506172839,35.80246913580247,0)" xlink:href="#ah"/><use transform="matrix(0.06172839506172839,0,0,0.06172839506172839,40.67901234567901,0)" xlink:href="#an"/><use transform="matrix(0.06172839506172839,0,0,0.06172839506172839,53.02469135802469,0)" xlink:href="#ae"/></g><g id="C"><use transform="matrix(0.06172839506172839,0,0,0.06172839506172839,0,0)" xlink:href="#aq"/><use transform="matrix(0.06172839506172839,0,0,0.06172839506172839,6.172839506172839,0)" xlink:href="#aj"/><use transform="matrix(0.06172839506172839,0,0,0.06172839506172839,18.51851851851852,0)" xlink:href="#S"/></g><path d="M232-93c-1 65-40 97-104 97C67 4 28-28 28-90v-158h33c8 89-33 224 67 224 102 0 64-133 71-224h33v155" id="ar"/><g id="D"><use transform="matrix(0.06172839506172839,0,0,0.06172839506172839,0,0)" xlink:href="#ar"/><use transform="matrix(0.06172839506172839,0,0,0.06172839506172839,15.987654320987653,0)" xlink:href="#aa"/><use transform="matrix(0.06172839506172839,0,0,0.06172839506172839,22.160493827160494,0)" xlink:href="#Z"/></g><g id="E"><use transform="matrix(0.06172839506172839,0,0,0.06172839506172839,0,0)" xlink:href="#aa"/><use transform="matrix(0.06172839506172839,0,0,0.06172839506172839,6.172839506172839,0)" xlink:href="#ae"/><use transform="matrix(0.06172839506172839,0,0,0.06172839506172839,18.51851851851852,0)" xlink:href="#V"/><use transform="matrix(0.06172839506172839,0,0,0.06172839506172839,24.691358024691358,0)" xlink:href="#T"/><use transform="matrix(0.06172839506172839,0,0,0.06172839506172839,37.03703703703704,0)" xlink:href="#an"/><use transform="matrix(0.06172839506172839,0,0,0.06172839506172839,49.382716049382715,0)" xlink:href="#S"/><use transform="matrix(0.06172839506172839,0,0,0.06172839506172839,56.72839506172839,0)" xlink:href="#U"/><use transform="matrix(0.06172839506172839,0,0,0.06172839506172839,69.07407407407408,0)" xlink:href="#V"/><use transform="matrix(0.06172839506172839,0,0,0.06172839506172839,75.24691358024691,0)" xlink:href="#ah"/><use transform="matrix(0.06172839506172839,0,0,0.06172839506172839,80.12345679012346,0)" xlink:href="#aj"/><use transform="matrix(0.06172839506172839,0,0,0.06172839506172839,92.46913580246914,0)" xlink:href="#ae"/></g><g id="F"><use transform="matrix(0.06172839506172839,0,0,0.06172839506172839,0,0)" xlink:href="#V"/><use transform="matrix(0.06172839506172839,0,0,0.06172839506172839,6.172839506172839,0)" xlink:href="#T"/><use transform="matrix(0.06172839506172839,0,0,0.06172839506172839,18.51851851851852,0)" xlink:href="#Y"/><use transform="matrix(0.06172839506172839,0,0,0.06172839506172839,29.62962962962963,0)" xlink:href="#V"/><use transform="matrix(0.06172839506172839,0,0,0.06172839506172839,35.80246913580247,0)" xlink:href="#ah"/><use transform="matrix(0.06172839506172839,0,0,0.06172839506172839,40.67901234567901,0)" xlink:href="#ae"/><use transform="matrix(0.06172839506172839,0,0,0.06172839506172839,53.02469135802469,0)" xlink:href="#an"/><use transform="matrix(0.06172839506172839,0,0,0.06172839506172839,65.37037037037037,0)" xlink:href="#Z"/></g><path fill="#3a414a" d="M160-131c35 5 61 23 61 61C221 17 115-2 30 0v-248c76 3 177-17 177 60 0 33-19 50-47 57zm-97-11c50-1 110 9 110-42 0-47-63-36-110-37v79zm0 115c55-2 124 14 124-45 0-56-70-42-124-44v89" id="as"/><path fill="#3a414a" d="M141-36C126-15 110 5 73 4 37 3 15-17 15-53c-1-64 63-63 125-63 3-35-9-54-41-54-24 1-41 7-42 31l-33-3c5-37 33-52 76-52 45 0 72 20 72 64v82c-1 20 7 32 28 27v20c-31 9-61-2-59-35zM48-53c0 20 12 33 32 33 41-3 63-29 60-74-43 2-92-5-92 41" id="at"/><path fill="#3a414a" d="M96-169c-40 0-48 33-48 73s9 75 48 75c24 0 41-14 43-38l32 2c-6 37-31 61-74 61-59 0-76-41-82-99-10-93 101-131 147-64 4 7 5 14 7 22l-32 3c-4-21-16-35-41-35" id="au"/><path fill="#3a414a" d="M143 0L79-87 56-68V0H24v-261h32v163l83-92h37l-77 82L181 0h-38" id="av"/><g id="G"><use transform="matrix(0.12345679012345674,0,0,0.12345679012345674,0,0)" xlink:href="#as"/><use transform="matrix(0.12345679012345674,0,0,0.12345679012345674,29.62962962962962,0)" xlink:href="#at"/><use transform="matrix(0.12345679012345674,0,0,0.12345679012345674,54.320987654320966,0)" xlink:href="#au"/><use transform="matrix(0.12345679012345674,0,0,0.12345679012345674,76.54320987654319,0)" xlink:href="#av"/></g><path fill="#3a414a" d="M100-194c63 0 86 42 84 106H49c0 40 14 67 53 68 26 1 43-12 49-29l28 8c-11 28-37 45-77 45C44 4 14-33 15-96c1-61 26-98 85-98zm52 81c6-60-76-77-97-28-3 7-6 17-6 28h103" id="aw"/><path fill="#3a414a" d="M117-194c89-4 53 116 60 194h-32v-121c0-31-8-49-39-48C34-167 62-67 57 0H25l-1-190h30c1 10-1 24 2 32 11-22 29-35 61-36" id="ax"/><path fill="#3a414a" d="M85-194c31 0 48 13 60 33l-1-100h32l1 261h-30c-2-10 0-23-3-31C134-8 116 4 85 4 32 4 16-35 15-94c0-66 23-100 70-100zm9 24c-40 0-46 34-46 75 0 40 6 74 45 74 42 0 51-32 51-76 0-42-9-74-50-73" id="ay"/><g id="H"><use transform="matrix(0.12345679012345674,0,0,0.12345679012345674,0,0)" xlink:href="#aw"/><use transform="matrix(0.12345679012345674,0,0,0.12345679012345674,24.691358024691347,0)" xlink:href="#ax"/><use transform="matrix(0.12345679012345674,0,0,0.12345679012345674,49.382716049382694,0)" xlink:href="#ay"/></g><path fill="#3a414a" d="M63-220v92h138v28H63V0H30v-248h175v28H63" id="az"/><path fill="#3a414a" d="M114-163C36-179 61-72 57 0H25l-1-190h30c1 12-1 29 2 39 6-27 23-49 58-41v29" id="aA"/><path fill="#3a414a" d="M100-194c62-1 85 37 85 99 1 63-27 99-86 99S16-35 15-95c0-66 28-99 85-99zM99-20c44 1 53-31 53-75 0-43-8-75-51-75s-53 32-53 75 10 74 51 75" id="aB"/><path fill="#3a414a" d="M59-47c-2 24 18 29 38 22v24C64 9 27 4 27-40v-127H5v-23h24l9-43h21v43h35v23H59v120" id="aC"/><g id="I"><use transform="matrix(0.12345679012345674,0,0,0.12345679012345674,0,0)" xlink:href="#az"/><use transform="matrix(0.12345679012345674,0,0,0.12345679012345674,27.037037037037027,0)" xlink:href="#aA"/><use transform="matrix(0.12345679012345674,0,0,0.12345679012345674,41.72839506172838,0)" xlink:href="#aB"/><use transform="matrix(0.12345679012345674,0,0,0.12345679012345674,66.41975308641972,0)" xlink:href="#ax"/><use transform="matrix(0.12345679012345674,0,0,0.12345679012345674,91.11111111111106,0)" xlink:href="#aC"/></g><path fill="#3a414a" d="M205 0l-28-72H64L36 0H1l101-248h38L239 0h-34zm-38-99l-47-123c-12 45-31 82-46 123h93" id="aD"/><path fill="#3a414a" d="M84 4C-5 8 30-112 23-190h32v120c0 31 7 50 39 49 72-2 45-101 50-169h31l1 190h-30c-1-10 1-25-2-33-11 22-28 36-60 37" id="aE"/><path fill="#3a414a" d="M141 0L90-78 38 0H4l68-98-65-92h35l48 74 47-74h35l-64 92 68 98h-35" id="aF"/><path fill="#3a414a" d="M24-231v-30h32v30H24zM24 0v-190h32V0H24" id="aG"/><path fill="#3a414a" d="M24 0v-261h32V0H24" id="aH"/><path fill="#3a414a" d="M179-190L93 31C79 59 56 82 12 73V49c39 6 53-20 64-50L1-190h34L92-34l54-156h33" id="aI"/><g id="J"><use transform="matrix(0.12345679012345674,0,0,0.12345679012345674,0,0)" xlink:href="#aD"/><use transform="matrix(0.12345679012345674,0,0,0.12345679012345674,29.62962962962962,0)" xlink:href="#aE"/><use transform="matrix(0.12345679012345674,0,0,0.12345679012345674,54.320987654320966,0)" xlink:href="#aF"/><use transform="matrix(0.12345679012345674,0,0,0.12345679012345674,76.54320987654319,0)" xlink:href="#aG"/><use transform="matrix(0.12345679012345674,0,0,0.12345679012345674,86.29629629629628,0)" xlink:href="#aH"/><use transform="matrix(0.12345679012345674,0,0,0.12345679012345674,96.04938271604937,0)" xlink:href="#aG"/><use transform="matrix(0.12345679012345674,0,0,0.12345679012345674,105.80246913580245,0)" xlink:href="#at"/><use transform="matrix(0.12345679012345674,0,0,0.12345679012345674,130.4938271604938,0)" xlink:href="#aA"/><use transform="matrix(0.12345679012345674,0,0,0.12345679012345674,145.18518518518513,0)" xlink:href="#aI"/></g></defs></g></svg>